solid hatchbox_spool_clip_1.75b
facet normal -4.699944137579829e-16 1.0 -0.0
  outer loop
    vertex -0.9999999999999999 9.499999999999996 7.999999999999999
    vertex 5.0 9.5 0.0
    vertex -0.9999999999999999 9.499999999999996 0.0
  endloop
endfacet
facet normal -4.699944137579829e-16 1.0 -0.0
  outer loop
    vertex 5.0 9.5 0.0
    vertex -0.9999999999999999 9.499999999999996 7.999999999999999
    vertex 5.0 9.5 7.999999999999999
  endloop
endfacet
facet normal 0.9914448613738103 0.1305261922200529 -0.0
  outer loop
    vertex 7.169073837436536 4.3646952321184855 0.0
    vertex 7.249999999999999 3.7499999999999987 7.999999999999999
    vertex 7.249999999999999 3.7499999999999987 0.0
  endloop
endfacet
facet normal 0.9914448613738103 0.1305261922200529 -0.0
  outer loop
    vertex 7.249999999999999 3.7499999999999987 7.999999999999999
    vertex 7.169073837436536 4.3646952321184855 0.0
    vertex 7.169073837436536 4.3646952321184855 7.999999999999999
  endloop
endfacet
facet normal 0.9914448613738104 -0.13052619222005246 0.0
  outer loop
    vertex 7.249999999999999 3.7499999999999987 0.0
    vertex 7.169073837436536 3.13530476788151 7.999999999999999
    vertex 7.169073837436536 3.13530476788151 0.0
  endloop
endfacet
facet normal 0.9914448613738104 -0.13052619222005246 0.0
  outer loop
    vertex 7.169073837436536 3.13530476788151 7.999999999999999
    vertex 7.249999999999999 3.7499999999999987 0.0
    vertex 7.249999999999999 3.7499999999999987 7.999999999999999
  endloop
endfacet
facet normal 0.9238795325112867 -0.38268343236509034 0.0
  outer loop
    vertex 7.169073837436536 3.13530476788151 0.0
    vertex 6.93181033398804 2.562499999999998 7.999999999999999
    vertex 6.93181033398804 2.562499999999998 0.0
  endloop
endfacet
facet normal 0.9238795325112867 -0.38268343236509034 0.0
  outer loop
    vertex 6.93181033398804 2.562499999999998 7.999999999999999
    vertex 7.169073837436536 3.13530476788151 0.0
    vertex 7.169073837436536 3.13530476788151 7.999999999999999
  endloop
endfacet
facet normal 0.7933533402912354 -0.6087614290087203 0.0
  outer loop
    vertex 6.93181033398804 2.562499999999998 0.0
    vertex 6.55437860531805 2.070621394681948 7.999999999999999
    vertex 6.55437860531805 2.070621394681948 0.0
  endloop
endfacet
facet normal 0.7933533402912354 -0.6087614290087203 0.0
  outer loop
    vertex 6.55437860531805 2.070621394681948 7.999999999999999
    vertex 6.93181033398804 2.562499999999998 0.0
    vertex 6.93181033398804 2.562499999999998 7.999999999999999
  endloop
endfacet
facet normal 0.6087614290087201 -0.7933533402912356 0.0
  outer loop
    vertex 6.55437860531805 2.070621394681948 7.999999999999999
    vertex 6.062499999999998 1.693189666011956 0.0
    vertex 6.55437860531805 2.070621394681948 0.0
  endloop
endfacet
facet normal 0.6087614290087201 -0.7933533402912356 0.0
  outer loop
    vertex 6.062499999999998 1.693189666011956 0.0
    vertex 6.55437860531805 2.070621394681948 7.999999999999999
    vertex 6.062499999999998 1.693189666011956 7.999999999999999
  endloop
endfacet
facet normal 0.38268343236508917 -0.9238795325112872 0.0
  outer loop
    vertex 6.062499999999998 1.693189666011956 7.999999999999999
    vertex 5.4896952321184855 1.4559261625634614 0.0
    vertex 6.062499999999998 1.693189666011956 0.0
  endloop
endfacet
facet normal 0.38268343236508917 -0.9238795325112872 0.0
  outer loop
    vertex 5.4896952321184855 1.4559261625634614 0.0
    vertex 6.062499999999998 1.693189666011956 7.999999999999999
    vertex 5.4896952321184855 1.4559261625634614 7.999999999999999
  endloop
endfacet
facet normal -0.0 1.0 -0.0
  outer loop
    vertex 4.75 2.874999999999999 2.8199664825478975e-15
    vertex 4.874999999999999 2.874999999999999 7.999999999999999
    vertex 4.874999999999999 2.874999999999999 0.0
  endloop
endfacet
facet normal -0.0 1.0 -0.0
  outer loop
    vertex 4.874999999999999 2.874999999999999 7.999999999999999
    vertex 4.75 2.874999999999999 2.8199664825478975e-15
    vertex 4.75 2.874999999999999 7.999999999999999
  endloop
endfacet
facet normal -0.13052619222005196 0.9914448613738105 -0.0
  outer loop
    vertex 4.874999999999999 2.874999999999999 7.999999999999999
    vertex 5.101466664464705 2.904814901997064 0.0
    vertex 4.874999999999999 2.874999999999999 0.0
  endloop
endfacet
facet normal -0.13052619222005196 0.9914448613738105 -0.0
  outer loop
    vertex 5.101466664464705 2.904814901997064 0.0
    vertex 4.874999999999999 2.874999999999999 7.999999999999999
    vertex 5.101466664464705 2.904814901997064 7.999999999999999
  endloop
endfacet
facet normal -0.38268343236508945 0.923879532511287 0.0
  outer loop
    vertex 5.101466664464705 2.904814901997064 7.999999999999999
    vertex 5.312499999999999 2.992227771688615 0.0
    vertex 5.101466664464705 2.904814901997064 0.0
  endloop
endfacet
facet normal -0.38268343236508945 0.923879532511287 0.0
  outer loop
    vertex 5.312499999999999 2.992227771688615 0.0
    vertex 5.101466664464705 2.904814901997064 7.999999999999999
    vertex 5.312499999999999 2.992227771688615 7.999999999999999
  endloop
endfacet
facet normal -0.6087614290087201 0.7933533402912356 0.0
  outer loop
    vertex 5.312499999999999 2.992227771688615 7.999999999999999
    vertex 5.493718433538229 3.13128156646177 0.0
    vertex 5.312499999999999 2.992227771688615 0.0
  endloop
endfacet
facet normal -0.6087614290087201 0.7933533402912356 0.0
  outer loop
    vertex 5.493718433538229 3.13128156646177 0.0
    vertex 5.312499999999999 2.992227771688615 7.999999999999999
    vertex 5.493718433538229 3.13128156646177 7.999999999999999
  endloop
endfacet
facet normal -0.7933533402912359 0.6087614290087199 0.0
  outer loop
    vertex 5.632772228311383 3.3124999999999987 7.999999999999999
    vertex 5.493718433538229 3.13128156646177 0.0
    vertex 5.493718433538229 3.13128156646177 7.999999999999999
  endloop
endfacet
facet normal -0.7933533402912359 0.6087614290087199 0.0
  outer loop
    vertex 5.493718433538229 3.13128156646177 0.0
    vertex 5.632772228311383 3.3124999999999987 7.999999999999999
    vertex 5.632772228311383 3.3124999999999987 0.0
  endloop
endfacet
facet normal -0.9238795325112865 0.38268343236509056 0.0
  outer loop
    vertex 5.720185098002934 3.523533335535293 7.999999999999999
    vertex 5.632772228311383 3.3124999999999987 0.0
    vertex 5.632772228311383 3.3124999999999987 7.999999999999999
  endloop
endfacet
facet normal -0.9238795325112865 0.38268343236509056 0.0
  outer loop
    vertex 5.632772228311383 3.3124999999999987 0.0
    vertex 5.720185098002934 3.523533335535293 7.999999999999999
    vertex 5.720185098002934 3.523533335535293 0.0
  endloop
endfacet
facet normal -0.9914448613738105 0.13052619222005155 0.0
  outer loop
    vertex 5.749999999999999 3.7499999999999987 7.999999999999999
    vertex 5.720185098002934 3.523533335535293 0.0
    vertex 5.720185098002934 3.523533335535293 7.999999999999999
  endloop
endfacet
facet normal -0.9914448613738105 0.13052619222005155 0.0
  outer loop
    vertex 5.720185098002934 3.523533335535293 0.0
    vertex 5.749999999999999 3.7499999999999987 7.999999999999999
    vertex 5.749999999999999 3.7499999999999987 0.0
  endloop
endfacet
facet normal -0.9914448613738105 -0.13052619222005196 -0.0
  outer loop
    vertex 5.720185098002934 3.976466664464704 7.999999999999999
    vertex 5.749999999999999 3.7499999999999987 0.0
    vertex 5.749999999999999 3.7499999999999987 7.999999999999999
  endloop
endfacet
facet normal -0.9914448613738105 -0.13052619222005196 -0.0
  outer loop
    vertex 5.749999999999999 3.7499999999999987 0.0
    vertex 5.720185098002934 3.976466664464704 7.999999999999999
    vertex 5.720185098002934 3.976466664464704 0.0
  endloop
endfacet
facet normal -0.923879532511287 -0.38268343236508945 -0.0
  outer loop
    vertex 5.632772228311383 4.187499999999999 7.999999999999999
    vertex 5.720185098002934 3.976466664464704 0.0
    vertex 5.720185098002934 3.976466664464704 7.999999999999999
  endloop
endfacet
facet normal -0.923879532511287 -0.38268343236508945 -0.0
  outer loop
    vertex 5.720185098002934 3.976466664464704 0.0
    vertex 5.632772228311383 4.187499999999999 7.999999999999999
    vertex 5.632772228311383 4.187499999999999 0.0
  endloop
endfacet
facet normal -0.7933533402912353 -0.6087614290087207 -0.0
  outer loop
    vertex 5.493718433538229 4.368718433538227 7.999999999999999
    vertex 5.632772228311383 4.187499999999999 0.0
    vertex 5.632772228311383 4.187499999999999 7.999999999999999
  endloop
endfacet
facet normal -0.7933533402912353 -0.6087614290087207 -0.0
  outer loop
    vertex 5.632772228311383 4.187499999999999 0.0
    vertex 5.493718433538229 4.368718433538227 7.999999999999999
    vertex 5.493718433538229 4.368718433538227 0.0
  endloop
endfacet
facet normal -0.6087614290087225 -0.7933533402912338 -0.0
  outer loop
    vertex 5.493718433538229 4.368718433538227 7.999999999999999
    vertex 5.3125 4.507772228311382 0.0
    vertex 5.493718433538229 4.368718433538227 0.0
  endloop
endfacet
facet normal -0.6087614290087225 -0.7933533402912338 -0.0
  outer loop
    vertex 5.3125 4.507772228311382 0.0
    vertex 5.493718433538229 4.368718433538227 7.999999999999999
    vertex 5.3125 4.507772228311382 7.999999999999999
  endloop
endfacet
facet normal -0.38268343236508945 -0.923879532511287 -0.0
  outer loop
    vertex 5.3125 4.507772228311382 7.999999999999999
    vertex 5.101466664464706 4.595185098002934 0.0
    vertex 5.3125 4.507772228311382 0.0
  endloop
endfacet
facet normal -0.38268343236508945 -0.923879532511287 -0.0
  outer loop
    vertex 5.101466664464706 4.595185098002934 0.0
    vertex 5.3125 4.507772228311382 7.999999999999999
    vertex 5.101466664464706 4.595185098002934 7.999999999999999
  endloop
endfacet
facet normal 1.0 -0.0 -0.0
  outer loop
    vertex 0.0 7.374999999999999 0.0
    vertex 0.0 0.75 7.999999999999999
    vertex 0.0 0.75 0.0
  endloop
endfacet
facet normal 1.0 -0.0 -0.0
  outer loop
    vertex 0.0 0.75 7.999999999999999
    vertex 0.0 7.374999999999999 0.0
    vertex 0.0 7.374999999999999 7.999999999999999
  endloop
endfacet
facet normal -1.0 0.0 0.0
  outer loop
    vertex -1.5 8.999999999999998 7.999999999999999
    vertex -1.5 0.7499999999999998 -7.049916206369744e-16
    vertex -1.5 0.7499999999999998 7.999999999999999
  endloop
endfacet
facet normal -1.0 0.0 0.0
  outer loop
    vertex -1.5 0.7499999999999998 -7.049916206369744e-16
    vertex -1.5 8.999999999999998 7.999999999999999
    vertex -1.5 8.999999999999998 0.0
  endloop
endfacet
facet normal 0.12439120941049693 -0.9922330595974787 0.0006184361084667331
  outer loop
    vertex 5.4896952321184855 1.4559261625634614 7.999999999999999
    vertex 4.874999999999999 1.374999999999999 0.0
    vertex 5.4896952321184855 1.4559261625634614 0.0
  endloop
endfacet
facet normal 0.12439120941049693 -0.9922330595974787 0.0006184361084667331
  outer loop
    vertex 4.874999999999999 1.374999999999999 0.0
    vertex 5.4896952321184855 1.4559261625634614 7.999999999999999
    vertex 4.874999999999999 1.374999999999999 7.999999999999999
  endloop
endfacet
facet normal 0.12439120941049693 -0.9922330595974787 0.0006184361084667331
  outer loop
    vertex 4.874999999999999 1.374999999999999 7.999999999999999
    vertex 5.4896952321184855 1.4559261625634614 7.999999999999999
    vertex 4.944114283826891 1.4005556302831976 7.999999999999999
  endloop
endfacet
facet normal 0.0 -1.0 0.0
  outer loop
    vertex 4.874999999999999 1.374999999999999 7.999999999999999
    vertex 4.75 1.374999999999999 3.524958103184872e-15
    vertex 4.874999999999999 1.374999999999999 0.0
  endloop
endfacet
facet normal 0.0 -1.0 0.0
  outer loop
    vertex 4.75 1.374999999999999 3.524958103184872e-15
    vertex 4.874999999999999 1.374999999999999 7.999999999999999
    vertex 4.75 1.374999999999999 7.999999999999999
  endloop
endfacet
facet normal 0.03996803834887266 -0.9992009587217895 -6.552421472935313e-19
  outer loop
    vertex 3.6250000000000164 8.000000000000004 1.4099832412739488e-14
    vertex 0.5000000000000006 7.875 7.999999999999999
    vertex 0.5000000000000006 7.875 0.0
  endloop
endfacet
facet normal 0.03996803834887266 -0.9992009587217895 -6.552421472935313e-19
  outer loop
    vertex 0.5000000000000006 7.875 7.999999999999999
    vertex 3.6250000000000164 8.000000000000004 1.4099832412739488e-14
    vertex 3.6250000000000164 8.000000000000004 8.000000000000014
  endloop
endfacet
facet normal -0.13052619222005146 -0.9914448613738105 3.604300803533647e-21
  outer loop
    vertex 3.7544095225512772 7.982962913144537 1.4804824033376462e-14
    vertex 3.6250000000000164 8.000000000000004 8.000000000000014
    vertex 3.6250000000000164 8.000000000000004 1.4099832412739488e-14
  endloop
endfacet
facet normal -0.13052619222005146 -0.9914448613738105 3.604300803533647e-21
  outer loop
    vertex 3.6250000000000164 8.000000000000004 8.000000000000014
    vertex 3.7544095225512772 7.982962913144537 1.4804824033376462e-14
    vertex 3.7544095225512772 7.982962913144537 8.000000000000014
  endloop
endfacet
facet normal -0.9914448613738114 -0.13052619222004547 3.604300803526972e-21
  outer loop
    vertex 4.107962913144552 7.6294095225512635 8.000000000000014
    vertex 4.125000000000016 7.500000000000002 1.4099832412739488e-14
    vertex 4.125000000000016 7.500000000000002 8.000000000000014
  endloop
endfacet
facet normal -0.9914448613738114 -0.13052619222004547 3.604300803526972e-21
  outer loop
    vertex 4.125000000000016 7.500000000000002 1.4099832412739488e-14
    vertex 4.107962913144552 7.6294095225512635 8.000000000000014
    vertex 4.107962913144552 7.6294095225512635 1.4804824033376462e-14
  endloop
endfacet
facet normal -0.9238795325112865 -0.38268343236509056 -7.174692330707477e-33
  outer loop
    vertex 4.0580127018922365 7.750000000000001 8.000000000000014
    vertex 4.107962913144552 7.6294095225512635 1.4804824033376462e-14
    vertex 4.107962913144552 7.6294095225512635 8.000000000000014
  endloop
endfacet
facet normal -0.9238795325112865 -0.38268343236509056 -7.174692330707477e-33
  outer loop
    vertex 4.107962913144552 7.6294095225512635 1.4804824033376462e-14
    vertex 4.0580127018922365 7.750000000000001 8.000000000000014
    vertex 4.0580127018922365 7.750000000000001 1.4804824033376462e-14
  endloop
endfacet
facet normal -0.608761429008718 -0.7933533402912374 0.0
  outer loop
    vertex 3.9785533905932904 7.853553390593277 8.000000000000014
    vertex 3.875000000000017 7.933012701892221 1.4804824033376462e-14
    vertex 3.9785533905932904 7.853553390593277 1.4804824033376462e-14
  endloop
endfacet
facet normal -0.608761429008718 -0.7933533402912374 0.0
  outer loop
    vertex 3.875000000000017 7.933012701892221 1.4804824033376462e-14
    vertex 3.9785533905932904 7.853553390593277 8.000000000000014
    vertex 3.875000000000017 7.933012701892221 8.000000000000014
  endloop
endfacet
facet normal -0.38268343236510055 -0.9238795325112823 0.0
  outer loop
    vertex 3.875000000000017 7.933012701892221 8.000000000000014
    vertex 3.7544095225512772 7.982962913144537 1.4804824033376462e-14
    vertex 3.875000000000017 7.933012701892221 1.4804824033376462e-14
  endloop
endfacet
facet normal -0.38268343236510055 -0.9238795325112823 0.0
  outer loop
    vertex 3.7544095225512772 7.982962913144537 1.4804824033376462e-14
    vertex 3.875000000000017 7.933012701892221 8.000000000000014
    vertex 3.7544095225512772 7.982962913144537 8.000000000000014
  endloop
endfacet
facet normal 0.9914448613738103 -0.13052619222005282 -7.2086016070688e-21
  outer loop
    vertex 0.017037086855465965 7.504409522551259 -7.049916206369744e-16
    vertex 0.0 7.374999999999999 7.999999999999999
    vertex 0.0 7.374999999999999 0.0
  endloop
endfacet
facet normal 0.9914448613738103 -0.13052619222005282 -7.2086016070688e-21
  outer loop
    vertex 0.0 7.374999999999999 7.999999999999999
    vertex 0.017037086855465965 7.504409522551259 -7.049916206369744e-16
    vertex 0.017037086855465965 7.504409522551259 7.999999999999999
  endloop
endfacet
facet normal -0.13052619222005196 0.9914448613738105 3.604300803534311e-21
  outer loop
    vertex -1.1294095225512601 9.482962913144531 7.999999999999999
    vertex -0.9999999999999999 9.499999999999996 0.0
    vertex -1.1294095225512601 9.482962913144531 -7.049916206369744e-16
  endloop
endfacet
facet normal -0.13052619222005196 0.9914448613738105 3.604300803534311e-21
  outer loop
    vertex -0.9999999999999999 9.499999999999996 0.0
    vertex -1.1294095225512601 9.482962913144531 7.999999999999999
    vertex -0.9999999999999999 9.499999999999996 7.999999999999999
  endloop
endfacet
facet normal -0.3826834323650932 0.9238795325112854 0.0
  outer loop
    vertex -1.249999999999999 9.433012701892215 7.999999999999999
    vertex -1.1294095225512601 9.482962913144531 -7.049916206369744e-16
    vertex -1.249999999999999 9.433012701892215 -7.049916206369744e-16
  endloop
endfacet
facet normal -0.3826834323650932 0.9238795325112854 0.0
  outer loop
    vertex -1.1294095225512601 9.482962913144531 -7.049916206369744e-16
    vertex -1.249999999999999 9.433012701892215 7.999999999999999
    vertex -1.1294095225512601 9.482962913144531 7.999999999999999
  endloop
endfacet
facet normal -0.60876142900872 0.7933533402912358 0.0
  outer loop
    vertex -1.3535533905932722 9.353553390593271 7.999999999999999
    vertex -1.249999999999999 9.433012701892215 -7.049916206369744e-16
    vertex -1.3535533905932722 9.353553390593271 -7.049916206369744e-16
  endloop
endfacet
facet normal -0.60876142900872 0.7933533402912358 0.0
  outer loop
    vertex -1.249999999999999 9.433012701892215 -7.049916206369744e-16
    vertex -1.3535533905932722 9.353553390593271 7.999999999999999
    vertex -1.249999999999999 9.433012701892215 7.999999999999999
  endloop
endfacet
facet normal -0.7933533402912359 0.6087614290087197 0.0
  outer loop
    vertex -1.3535533905932722 9.353553390593271 7.999999999999999
    vertex -1.4330127018922174 9.249999999999996 -7.049916206369744e-16
    vertex -1.4330127018922174 9.249999999999996 7.999999999999999
  endloop
endfacet
facet normal -0.7933533402912359 0.6087614290087197 0.0
  outer loop
    vertex -1.4330127018922174 9.249999999999996 -7.049916206369744e-16
    vertex -1.3535533905932722 9.353553390593271 7.999999999999999
    vertex -1.3535533905932722 9.353553390593271 -7.049916206369744e-16
  endloop
endfacet
facet normal -0.9238795325112861 0.3826834323650917 0.0
  outer loop
    vertex -1.4330127018922174 9.249999999999996 7.999999999999999
    vertex -1.4829629131445319 9.129409522551258 -7.049916206369744e-16
    vertex -1.4829629131445319 9.129409522551258 7.999999999999999
  endloop
endfacet
facet normal -0.9238795325112861 0.3826834323650917 0.0
  outer loop
    vertex -1.4829629131445319 9.129409522551258 -7.049916206369744e-16
    vertex -1.4330127018922174 9.249999999999996 7.999999999999999
    vertex -1.4330127018922174 9.249999999999996 -7.049916206369744e-16
  endloop
endfacet
facet normal -0.9914448613738084 0.1305261922200681 3.6043008035444e-21
  outer loop
    vertex -1.4829629131445319 9.129409522551258 7.999999999999999
    vertex -1.5 8.999999999999998 0.0
    vertex -1.5 8.999999999999998 7.999999999999999
  endloop
endfacet
facet normal -0.9914448613738084 0.1305261922200681 3.6043008035444e-21
  outer loop
    vertex -1.5 8.999999999999998 0.0
    vertex -1.4829629131445319 9.129409522551258 7.999999999999999
    vertex -1.4829629131445319 9.129409522551258 -7.049916206369744e-16
  endloop
endfacet
facet normal 0.9238795325112882 -0.3826834323650864 -0.0
  outer loop
    vertex 0.06698729810778083 7.625 -7.049916206369744e-16
    vertex 0.017037086855465965 7.504409522551259 7.999999999999999
    vertex 0.017037086855465965 7.504409522551259 -7.049916206369744e-16
  endloop
endfacet
facet normal 0.9238795325112882 -0.3826834323650864 -0.0
  outer loop
    vertex 0.017037086855465965 7.504409522551259 7.999999999999999
    vertex 0.06698729810778083 7.625 -7.049916206369744e-16
    vertex 0.06698729810778083 7.625 7.999999999999999
  endloop
endfacet
facet normal 0.7933533402912347 -0.6087614290087213 -9.455076776226858e-33
  outer loop
    vertex 0.14644660940672646 7.728553390593274 -7.049916206369744e-16
    vertex 0.06698729810778083 7.625 7.999999999999999
    vertex 0.06698729810778083 7.625 -7.049916206369744e-16
  endloop
endfacet
facet normal 0.7933533402912347 -0.6087614290087213 -9.455076776226858e-33
  outer loop
    vertex 0.06698729810778083 7.625 7.999999999999999
    vertex 0.14644660940672646 7.728553390593274 -7.049916206369744e-16
    vertex 0.14644660940672646 7.728553390593274 7.999999999999999
  endloop
endfacet
facet normal 0.6087614290087171 -0.7933533402912379 0.0
  outer loop
    vertex 0.2500000000000004 7.808012701892219 7.999999999999999
    vertex 0.14644660940672646 7.728553390593274 -7.049916206369744e-16
    vertex 0.2500000000000004 7.808012701892219 -7.049916206369744e-16
  endloop
endfacet
facet normal 0.6087614290087171 -0.7933533402912379 0.0
  outer loop
    vertex 0.14644660940672646 7.728553390593274 -7.049916206369744e-16
    vertex 0.2500000000000004 7.808012701892219 7.999999999999999
    vertex 0.14644660940672646 7.728553390593274 7.999999999999999
  endloop
endfacet
facet normal 0.38268343236509084 -0.9238795325112863 -1.4163643732087868e-32
  outer loop
    vertex 0.3705904774487401 7.857962913144534 7.999999999999999
    vertex 0.2500000000000004 7.808012701892219 -7.049916206369744e-16
    vertex 0.3705904774487401 7.857962913144534 -7.049916206369744e-16
  endloop
endfacet
facet normal 0.38268343236509084 -0.9238795325112863 -1.4163643732087868e-32
  outer loop
    vertex 0.2500000000000004 7.808012701892219 -7.049916206369744e-16
    vertex 0.3705904774487401 7.857962913144534 7.999999999999999
    vertex 0.2500000000000004 7.808012701892219 7.999999999999999
  endloop
endfacet
facet normal 0.13052619222005163 -0.9914448613738105 -3.6043008035342485e-21
  outer loop
    vertex 0.5000000000000006 7.875 0.0
    vertex 0.3705904774487401 7.857962913144534 7.999999999999999
    vertex 0.3705904774487401 7.857962913144534 -7.049916206369744e-16
  endloop
endfacet
facet normal 0.13052619222005163 -0.9914448613738105 -3.6043008035342485e-21
  outer loop
    vertex 0.3705904774487401 7.857962913144534 7.999999999999999
    vertex 0.5000000000000006 7.875 0.0
    vertex 0.5000000000000006 7.875 7.999999999999999
  endloop
endfacet
facet normal 0.9238795325112881 0.3826834323650867 2.091256950262326e-19
  outer loop
    vertex 5.433012701892218 9.250000000000002 3.524958103184872e-15
    vertex 5.482962913144532 9.129409522551262 7.999999999999999
    vertex 5.482962913144532 9.129409522551262 3.524958103184872e-15
  endloop
endfacet
facet normal 0.9238795325112881 0.3826834323650867 2.091256950262326e-19
  outer loop
    vertex 5.482962913144532 9.129409522551262 7.999999999999999
    vertex 5.433012701892218 9.250000000000002 3.524958103184872e-15
    vertex 5.433012701892218 9.250000000000002 7.999999999999999
  endloop
endfacet
facet normal 0.7933533402912307 0.6087614290087265 0.0
  outer loop
    vertex 5.353553390593272 9.353553390593273 3.524958103184872e-15
    vertex 5.433012701892218 9.250000000000002 7.999999999999999
    vertex 5.433012701892218 9.250000000000002 3.524958103184872e-15
  endloop
endfacet
facet normal 0.7933533402912307 0.6087614290087265 0.0
  outer loop
    vertex 5.433012701892218 9.250000000000002 7.999999999999999
    vertex 5.353553390593272 9.353553390593273 3.524958103184872e-15
    vertex 5.353553390593272 9.353553390593273 7.999999999999999
  endloop
endfacet
facet normal 0.6087614290087205 0.7933533402912353 0.0
  outer loop
    vertex 5.249999999999999 9.433012701892219 7.999999999999999
    vertex 5.353553390593272 9.353553390593273 3.524958103184872e-15
    vertex 5.249999999999999 9.433012701892219 3.524958103184872e-15
  endloop
endfacet
facet normal 0.6087614290087205 0.7933533402912353 0.0
  outer loop
    vertex 5.353553390593272 9.353553390593273 3.524958103184872e-15
    vertex 5.249999999999999 9.433012701892219 7.999999999999999
    vertex 5.353553390593272 9.353553390593273 7.999999999999999
  endloop
endfacet
facet normal 0.3826834323650932 0.9238795325112854 0.0
  outer loop
    vertex 5.12940952255126 9.482962913144533 7.999999999999999
    vertex 5.249999999999999 9.433012701892219 3.524958103184872e-15
    vertex 5.12940952255126 9.482962913144533 3.524958103184872e-15
  endloop
endfacet
facet normal 0.3826834323650932 0.9238795325112854 0.0
  outer loop
    vertex 5.249999999999999 9.433012701892219 3.524958103184872e-15
    vertex 5.12940952255126 9.482962913144533 7.999999999999999
    vertex 5.249999999999999 9.433012701892219 7.999999999999999
  endloop
endfacet
facet normal 0.13052619222005213 0.9914448613738105 -2.523010562474171e-20
  outer loop
    vertex 5.0 9.5 7.999999999999999
    vertex 5.12940952255126 9.482962913144533 3.524958103184872e-15
    vertex 5.0 9.5 0.0
  endloop
endfacet
facet normal 0.13052619222005213 0.9914448613738105 -2.523010562474171e-20
  outer loop
    vertex 5.12940952255126 9.482962913144533 3.524958103184872e-15
    vertex 5.0 9.5 7.999999999999999
    vertex 5.12940952255126 9.482962913144533 7.999999999999999
  endloop
endfacet
facet normal -0.793353340291236 -0.6087614290087195 0.0
  outer loop
    vertex 3.9785533905932904 7.853553390593277 8.000000000000014
    vertex 4.0580127018922365 7.750000000000001 1.4804824033376462e-14
    vertex 4.0580127018922365 7.750000000000001 8.000000000000014
  endloop
endfacet
facet normal -0.793353340291236 -0.6087614290087195 0.0
  outer loop
    vertex 4.0580127018922365 7.750000000000001 1.4804824033376462e-14
    vertex 3.9785533905932904 7.853553390593277 8.000000000000014
    vertex 3.9785533905932904 7.853553390593277 1.4804824033376462e-14
  endloop
endfacet
facet normal 0.9427138669507256 0.3336024056550097 3.7715869322311095e-19
  outer loop
    vertex 5.482962913144532 9.129409522551262 3.524958103184872e-15
    vertex 7.169073837436536 4.3646952321184855 7.999999999999999
    vertex 7.169073837436536 4.3646952321184855 0.0
  endloop
endfacet
facet normal 0.9427138669507256 0.3336024056550097 3.7715869322311095e-19
  outer loop
    vertex 7.169073837436536 4.3646952321184855 7.999999999999999
    vertex 5.482962913144532 9.129409522551262 3.524958103184872e-15
    vertex 5.482962913144532 9.129409522551262 7.999999999999999
  endloop
endfacet
facet normal 5.887239935122558e-16 4.576573662826556e-16 -1.0
  outer loop
    vertex -1.4829629131445319 9.129409522551258 -7.049916206369744e-16
    vertex -1.5 0.7499999999999998 -7.049916206369744e-16
    vertex -1.5 8.999999999999998 0.0
  endloop
endfacet
facet normal 5.887239935122558e-16 4.576573662826556e-16 -1.0
  outer loop
    vertex -1.5 0.7499999999999998 -7.049916206369744e-16
    vertex -1.4829629131445319 9.129409522551258 -7.049916206369744e-16
    vertex -1.474444369716801 0.5558857161731091 -7.049916206369744e-16
  endloop
endfacet
facet normal 5.887239935122558e-16 4.576573662826556e-16 -1.0
  outer loop
    vertex -1.474444369716801 0.5558857161731091 -7.049916206369744e-16
    vertex -1.4829629131445319 9.129409522551258 -7.049916206369744e-16
    vertex -1.4330127018922174 9.249999999999996 -7.049916206369744e-16
  endloop
endfacet
facet normal 5.887239935122558e-16 4.576573662826556e-16 -1.0
  outer loop
    vertex -1.474444369716801 0.5558857161731091 -7.049916206369744e-16
    vertex -1.4330127018922174 9.249999999999996 -7.049916206369744e-16
    vertex -1.3995190528383288 0.3749999999999996 -7.049916206369744e-16
  endloop
endfacet
facet normal 5.887239935122558e-16 4.576573662826556e-16 -1.0
  outer loop
    vertex -1.3995190528383288 0.3749999999999996 -7.049916206369744e-16
    vertex -1.4330127018922174 9.249999999999996 -7.049916206369744e-16
    vertex -1.3535533905932722 9.353553390593271 -7.049916206369744e-16
  endloop
endfacet
facet normal 5.887239935122558e-16 4.576573662826556e-16 -1.0
  outer loop
    vertex -1.3995190528383288 0.3749999999999996 -7.049916206369744e-16
    vertex -1.3535533905932722 9.353553390593271 -7.049916206369744e-16
    vertex -1.2803300858899105 0.2196699141100892 -7.049916206369744e-16
  endloop
endfacet
facet normal 5.887239935122558e-16 4.576573662826556e-16 -1.0
  outer loop
    vertex -1.2803300858899105 0.2196699141100892 -7.049916206369744e-16
    vertex -1.3535533905932722 9.353553390593271 -7.049916206369744e-16
    vertex -1.249999999999999 9.433012701892215 -7.049916206369744e-16
  endloop
endfacet
facet normal 5.887239935122558e-16 4.576573662826556e-16 -1.0
  outer loop
    vertex -1.2803300858899105 0.2196699141100892 -7.049916206369744e-16
    vertex -1.249999999999999 9.433012701892215 -7.049916206369744e-16
    vertex -1.1249999999999998 0.10048094716167093 -7.049916206369744e-16
  endloop
endfacet
facet normal 5.887239935122558e-16 4.576573662826556e-16 -1.0
  outer loop
    vertex -1.1249999999999998 0.10048094716167093 -7.049916206369744e-16
    vertex -1.249999999999999 9.433012701892215 -7.049916206369744e-16
    vertex -1.1294095225512601 9.482962913144531 -7.049916206369744e-16
  endloop
endfacet
facet normal 5.887239935122558e-16 4.576573662826556e-16 -1.0
  outer loop
    vertex -1.1249999999999998 0.10048094716167093 -7.049916206369744e-16
    vertex -1.1294095225512601 9.482962913144531 -7.049916206369744e-16
    vertex -0.9999999999999999 9.499999999999996 0.0
  endloop
endfacet
facet normal 5.887239935122558e-16 4.576573662826556e-16 -1.0
  outer loop
    vertex -1.1249999999999998 0.10048094716167093 -7.049916206369744e-16
    vertex -0.9999999999999999 9.499999999999996 0.0
    vertex -0.9441142838268903 0.025555630283198728 -7.049916206369744e-16
  endloop
endfacet
facet normal 5.887239935122558e-16 4.576573662826556e-16 -1.0
  outer loop
    vertex -0.9441142838268903 0.025555630283198728 -7.049916206369744e-16
    vertex -0.9999999999999999 9.499999999999996 0.0
    vertex 0.0 7.374999999999999 0.0
  endloop
endfacet
facet normal 5.887239935122558e-16 4.576573662826556e-16 -1.0
  outer loop
    vertex 0.0 7.374999999999999 0.0
    vertex -0.9999999999999999 9.499999999999996 0.0
    vertex 0.017037086855465965 7.504409522551259 -7.049916206369744e-16
  endloop
endfacet
facet normal 5.887239935122558e-16 4.576573662826556e-16 -1.0
  outer loop
    vertex 0.017037086855465965 7.504409522551259 -7.049916206369744e-16
    vertex -0.9999999999999999 9.499999999999996 0.0
    vertex 0.06698729810778083 7.625 -7.049916206369744e-16
  endloop
endfacet
facet normal 5.887239935122558e-16 4.576573662826556e-16 -1.0
  outer loop
    vertex 0.06698729810778083 7.625 -7.049916206369744e-16
    vertex -0.9999999999999999 9.499999999999996 0.0
    vertex 0.14644660940672646 7.728553390593274 -7.049916206369744e-16
  endloop
endfacet
facet normal 5.887239935122558e-16 4.576573662826556e-16 -1.0
  outer loop
    vertex 0.14644660940672646 7.728553390593274 -7.049916206369744e-16
    vertex -0.9999999999999999 9.499999999999996 0.0
    vertex 0.2500000000000004 7.808012701892219 -7.049916206369744e-16
  endloop
endfacet
facet normal 5.887239935122558e-16 4.576573662826556e-16 -1.0
  outer loop
    vertex 0.2500000000000004 7.808012701892219 -7.049916206369744e-16
    vertex -0.9999999999999999 9.499999999999996 0.0
    vertex 0.3705904774487401 7.857962913144534 -7.049916206369744e-16
  endloop
endfacet
facet normal 5.887239935122558e-16 4.576573662826556e-16 -1.0
  outer loop
    vertex 0.3705904774487401 7.857962913144534 -7.049916206369744e-16
    vertex -0.9999999999999999 9.499999999999996 0.0
    vertex 5.0 9.5 0.0
  endloop
endfacet
facet normal 5.887239935122558e-16 4.576573662826556e-16 -1.0
  outer loop
    vertex -0.9441142838268903 0.025555630283198728 -7.049916206369744e-16
    vertex 0.0 7.374999999999999 0.0
    vertex -0.7499999999999998 0.0 0.0
  endloop
endfacet
facet normal 5.887239935122558e-16 4.576573662826556e-16 -1.0
  outer loop
    vertex -0.7499999999999998 0.0 0.0
    vertex 0.0 7.374999999999999 0.0
    vertex -0.5558857161731092 0.025555630283198814 0.0
  endloop
endfacet
facet normal 5.887239935122558e-16 4.576573662826556e-16 -1.0
  outer loop
    vertex -0.5558857161731092 0.025555630283198814 0.0
    vertex 0.0 7.374999999999999 0.0
    vertex -0.3749999999999998 0.1004809471616711 0.0
  endloop
endfacet
facet normal 5.887239935122558e-16 4.576573662826556e-16 -1.0
  outer loop
    vertex -0.3749999999999998 0.1004809471616711 0.0
    vertex 0.0 7.374999999999999 0.0
    vertex -0.2196699141100892 0.2196699141100894 0.0
  endloop
endfacet
facet normal 5.887239935122558e-16 4.576573662826556e-16 -1.0
  outer loop
    vertex -0.2196699141100892 0.2196699141100894 0.0
    vertex 0.0 7.374999999999999 0.0
    vertex -0.10048094716167093 0.3750000000000001 0.0
  endloop
endfacet
facet normal 5.887239935122558e-16 4.576573662826556e-16 -1.0
  outer loop
    vertex -0.10048094716167093 0.3750000000000001 0.0
    vertex 0.0 7.374999999999999 0.0
    vertex -0.025555630283198728 0.5558857161731096 0.0
  endloop
endfacet
facet normal 5.887239935122558e-16 4.576573662826556e-16 -1.0
  outer loop
    vertex 0.3705904774487401 7.857962913144534 -7.049916206369744e-16
    vertex 5.0 9.5 0.0
    vertex 0.5000000000000006 7.875 0.0
  endloop
endfacet
facet normal 5.887239935122558e-16 4.576573662826556e-16 -1.0
  outer loop
    vertex 0.5000000000000006 7.875 0.0
    vertex 5.0 9.5 0.0
    vertex 3.6250000000000164 8.000000000000004 1.4099832412739488e-14
  endloop
endfacet
facet normal 5.887239935122558e-16 4.576573662826556e-16 -1.0
  outer loop
    vertex 3.6250000000000164 8.000000000000004 1.4099832412739488e-14
    vertex 5.0 9.5 0.0
    vertex 3.7544095225512772 7.982962913144537 1.4804824033376462e-14
  endloop
endfacet
facet normal 5.887239935122558e-16 4.576573662826556e-16 -1.0
  outer loop
    vertex 3.7544095225512772 7.982962913144537 1.4804824033376462e-14
    vertex 5.0 9.5 0.0
    vertex 3.875000000000017 7.933012701892221 1.4804824033376462e-14
  endloop
endfacet
facet normal 5.887239935122558e-16 4.576573662826556e-16 -1.0
  outer loop
    vertex 3.875000000000017 7.933012701892221 1.4804824033376462e-14
    vertex 5.0 9.5 0.0
    vertex 3.9785533905932904 7.853553390593277 1.4804824033376462e-14
  endloop
endfacet
facet normal 5.887239935122558e-16 4.576573662826556e-16 -1.0
  outer loop
    vertex 3.9785533905932904 7.853553390593277 1.4804824033376462e-14
    vertex 5.0 9.5 0.0
    vertex 4.0580127018922365 7.750000000000001 1.4804824033376462e-14
  endloop
endfacet
facet normal 5.887239935122558e-16 4.576573662826556e-16 -1.0
  outer loop
    vertex 4.0580127018922365 7.750000000000001 1.4804824033376462e-14
    vertex 5.0 9.5 0.0
    vertex 4.107962913144552 7.6294095225512635 1.4804824033376462e-14
  endloop
endfacet
facet normal 5.887239935122558e-16 4.576573662826556e-16 -1.0
  outer loop
    vertex 4.107962913144552 7.6294095225512635 1.4804824033376462e-14
    vertex 5.0 9.5 0.0
    vertex 4.125000000000016 7.500000000000002 1.4099832412739488e-14
  endloop
endfacet
facet normal 5.887239935122558e-16 4.576573662826556e-16 -1.0
  outer loop
    vertex 4.125000000000016 7.500000000000002 1.4099832412739488e-14
    vertex 5.0 9.5 0.0
    vertex 4.125000000000016 5.374999999999999 1.6919798895287383e-14
  endloop
endfacet
facet normal 5.887239935122558e-16 4.576573662826556e-16 -1.0
  outer loop
    vertex 4.125000000000016 5.374999999999999 1.6919798895287383e-14
    vertex 5.0 9.5 0.0
    vertex 4.150555630283216 5.180885716173108 1.6919798895287383e-14
  endloop
endfacet
facet normal 5.887239935122558e-16 4.576573662826556e-16 -1.0
  outer loop
    vertex 4.150555630283216 5.180885716173108 1.6919798895287383e-14
    vertex 5.0 9.5 0.0
    vertex 4.225480947161688 4.999999999999998 1.6919798895287383e-14
  endloop
endfacet
facet normal 5.887239935122558e-16 4.576573662826556e-16 -1.0
  outer loop
    vertex 4.225480947161688 4.999999999999998 1.6919798895287383e-14
    vertex 5.0 9.5 0.0
    vertex 4.3446699141101055 4.844669914110089 1.6919798895287383e-14
  endloop
endfacet
facet normal 5.887239935122558e-16 4.576573662826556e-16 -1.0
  outer loop
    vertex 4.3446699141101055 4.844669914110089 1.6919798895287383e-14
    vertex 5.0 9.5 0.0
    vertex 4.500000000000017 4.72548094716167 1.6919798895287383e-14
  endloop
endfacet
facet normal 5.887239935122558e-16 4.576573662826556e-16 -1.0
  outer loop
    vertex 4.500000000000017 4.72548094716167 1.6919798895287383e-14
    vertex 5.0 9.5 0.0
    vertex 4.680885716173126 4.650555630283198 1.6919798895287383e-14
  endloop
endfacet
facet normal 5.887239935122558e-16 4.576573662826556e-16 -1.0
  outer loop
    vertex 4.680885716173126 4.650555630283198 1.6919798895287383e-14
    vertex 5.0 9.5 0.0
    vertex 4.874999999999999 4.624999999999998 0.0
  endloop
endfacet
facet normal 5.887239935122558e-16 4.576573662826556e-16 -1.0
  outer loop
    vertex 4.874999999999999 4.624999999999998 0.0
    vertex 5.0 9.5 0.0
    vertex 5.101466664464706 4.595185098002934 0.0
  endloop
endfacet
facet normal 5.887239935122558e-16 4.576573662826556e-16 -1.0
  outer loop
    vertex 5.101466664464706 4.595185098002934 0.0
    vertex 5.0 9.5 0.0
    vertex 5.12940952255126 9.482962913144533 3.524958103184872e-15
  endloop
endfacet
facet normal 5.887239935122558e-16 4.576573662826556e-16 -1.0
  outer loop
    vertex 5.101466664464706 4.595185098002934 0.0
    vertex 5.12940952255126 9.482962913144533 3.524958103184872e-15
    vertex 5.3125 4.507772228311382 0.0
  endloop
endfacet
facet normal 5.887239935122558e-16 4.576573662826556e-16 -1.0
  outer loop
    vertex 5.3125 4.507772228311382 0.0
    vertex 5.12940952255126 9.482962913144533 3.524958103184872e-15
    vertex 5.249999999999999 9.433012701892219 3.524958103184872e-15
  endloop
endfacet
facet normal 5.887239935122558e-16 4.576573662826556e-16 -1.0
  outer loop
    vertex 5.3125 4.507772228311382 0.0
    vertex 5.249999999999999 9.433012701892219 3.524958103184872e-15
    vertex 5.353553390593272 9.353553390593273 3.524958103184872e-15
  endloop
endfacet
facet normal 5.887239935122558e-16 4.576573662826556e-16 -1.0
  outer loop
    vertex 5.3125 4.507772228311382 0.0
    vertex 5.353553390593272 9.353553390593273 3.524958103184872e-15
    vertex 5.493718433538229 4.368718433538227 0.0
  endloop
endfacet
facet normal 5.887239935122558e-16 4.576573662826556e-16 -1.0
  outer loop
    vertex 5.493718433538229 4.368718433538227 0.0
    vertex 5.353553390593272 9.353553390593273 3.524958103184872e-15
    vertex 5.433012701892218 9.250000000000002 3.524958103184872e-15
  endloop
endfacet
facet normal 5.887239935122558e-16 4.576573662826556e-16 -1.0
  outer loop
    vertex 5.493718433538229 4.368718433538227 0.0
    vertex 5.433012701892218 9.250000000000002 3.524958103184872e-15
    vertex 5.482962913144532 9.129409522551262 3.524958103184872e-15
  endloop
endfacet
facet normal 5.887239935122558e-16 4.576573662826556e-16 -1.0
  outer loop
    vertex 5.493718433538229 4.368718433538227 0.0
    vertex 5.482962913144532 9.129409522551262 3.524958103184872e-15
    vertex 7.169073837436536 4.3646952321184855 0.0
  endloop
endfacet
facet normal 5.887239935122558e-16 4.576573662826556e-16 -1.0
  outer loop
    vertex 5.493718433538229 4.368718433538227 0.0
    vertex 7.169073837436536 4.3646952321184855 0.0
    vertex 5.632772228311383 4.187499999999999 0.0
  endloop
endfacet
facet normal 5.887239935122558e-16 4.576573662826556e-16 -1.0
  outer loop
    vertex 5.632772228311383 4.187499999999999 0.0
    vertex 7.169073837436536 4.3646952321184855 0.0
    vertex 5.720185098002934 3.976466664464704 0.0
  endloop
endfacet
facet normal 5.887239935122558e-16 4.576573662826556e-16 -1.0
  outer loop
    vertex 5.720185098002934 3.976466664464704 0.0
    vertex 7.169073837436536 4.3646952321184855 0.0
    vertex 5.749999999999999 3.7499999999999987 0.0
  endloop
endfacet
facet normal 5.887239935122558e-16 4.576573662826556e-16 -1.0
  outer loop
    vertex 5.749999999999999 3.7499999999999987 0.0
    vertex 7.169073837436536 4.3646952321184855 0.0
    vertex 6.062499999999998 1.693189666011956 0.0
  endloop
endfacet
facet normal 5.887239935122558e-16 4.576573662826556e-16 -1.0
  outer loop
    vertex 6.062499999999998 1.693189666011956 0.0
    vertex 7.169073837436536 4.3646952321184855 0.0
    vertex 6.55437860531805 2.070621394681948 0.0
  endloop
endfacet
facet normal 5.887239935122558e-16 4.576573662826556e-16 -1.0
  outer loop
    vertex 6.55437860531805 2.070621394681948 0.0
    vertex 7.169073837436536 4.3646952321184855 0.0
    vertex 6.93181033398804 2.562499999999998 0.0
  endloop
endfacet
facet normal 5.887239935122558e-16 4.576573662826556e-16 -1.0
  outer loop
    vertex 6.93181033398804 2.562499999999998 0.0
    vertex 7.169073837436536 4.3646952321184855 0.0
    vertex 7.169073837436536 3.13530476788151 0.0
  endloop
endfacet
facet normal 5.887239935122558e-16 4.576573662826556e-16 -1.0
  outer loop
    vertex 7.169073837436536 3.13530476788151 0.0
    vertex 7.169073837436536 4.3646952321184855 0.0
    vertex 7.249999999999999 3.7499999999999987 0.0
  endloop
endfacet
facet normal 5.887239935122558e-16 4.576573662826556e-16 -1.0
  outer loop
    vertex 4.025555630283199 2.3191142838268894 2.8199664825478975e-15
    vertex 4.025555630283199 1.930885716173108 3.524958103184872e-15
    vertex 3.9999999999999996 2.124999999999999 3.524958103184872e-15
  endloop
endfacet
facet normal 5.887239935122558e-16 4.576573662826556e-16 -1.0
  outer loop
    vertex 4.025555630283199 1.930885716173108 3.524958103184872e-15
    vertex 4.025555630283199 2.3191142838268894 2.8199664825478975e-15
    vertex 4.10048094716167 2.4999999999999982 2.8199664825478975e-15
  endloop
endfacet
facet normal 5.887239935122558e-16 4.576573662826556e-16 -1.0
  outer loop
    vertex 4.025555630283199 1.930885716173108 3.524958103184872e-15
    vertex 4.10048094716167 2.4999999999999982 2.8199664825478975e-15
    vertex 4.100480947161671 1.7499999999999984 3.524958103184872e-15
  endloop
endfacet
facet normal 5.887239935122558e-16 4.576573662826556e-16 -1.0
  outer loop
    vertex 4.100480947161671 1.7499999999999984 3.524958103184872e-15
    vertex 4.10048094716167 2.4999999999999982 2.8199664825478975e-15
    vertex 4.2196699141100895 2.6553300858899096 2.8199664825478975e-15
  endloop
endfacet
facet normal 5.887239935122558e-16 4.576573662826556e-16 -1.0
  outer loop
    vertex 4.100480947161671 1.7499999999999984 3.524958103184872e-15
    vertex 4.2196699141100895 2.6553300858899096 2.8199664825478975e-15
    vertex 4.2196699141100895 1.594669914110088 3.524958103184872e-15
  endloop
endfacet
facet normal 5.887239935122558e-16 4.576573662826556e-16 -1.0
  outer loop
    vertex 4.2196699141100895 1.594669914110088 3.524958103184872e-15
    vertex 4.2196699141100895 2.6553300858899096 2.8199664825478975e-15
    vertex 4.374999999999999 2.7745190528383277 2.8199664825478975e-15
  endloop
endfacet
facet normal 5.887239935122558e-16 4.576573662826556e-16 -1.0
  outer loop
    vertex 4.2196699141100895 1.594669914110088 3.524958103184872e-15
    vertex 4.374999999999999 2.7745190528383277 2.8199664825478975e-15
    vertex 4.375 1.4754809471616699 3.524958103184872e-15
  endloop
endfacet
facet normal 5.887239935122558e-16 4.576573662826556e-16 -1.0
  outer loop
    vertex 4.375 1.4754809471616699 3.524958103184872e-15
    vertex 4.374999999999999 2.7745190528383277 2.8199664825478975e-15
    vertex 4.555885716173108 2.8494443697168 2.8199664825478975e-15
  endloop
endfacet
facet normal 5.887239935122558e-16 4.576573662826556e-16 -1.0
  outer loop
    vertex 4.375 1.4754809471616699 3.524958103184872e-15
    vertex 4.555885716173108 2.8494443697168 2.8199664825478975e-15
    vertex 4.55588571617311 1.4005556302831976 3.524958103184872e-15
  endloop
endfacet
facet normal 5.887239935122558e-16 4.576573662826556e-16 -1.0
  outer loop
    vertex 4.55588571617311 1.4005556302831976 3.524958103184872e-15
    vertex 4.555885716173108 2.8494443697168 2.8199664825478975e-15
    vertex 4.75 2.874999999999999 2.8199664825478975e-15
  endloop
endfacet
facet normal 5.887239935122558e-16 4.576573662826556e-16 -1.0
  outer loop
    vertex 4.55588571617311 1.4005556302831976 3.524958103184872e-15
    vertex 4.75 2.874999999999999 2.8199664825478975e-15
    vertex 4.75 1.374999999999999 3.524958103184872e-15
  endloop
endfacet
facet normal 5.887239935122558e-16 4.576573662826556e-16 -1.0
  outer loop
    vertex 4.75 1.374999999999999 3.524958103184872e-15
    vertex 4.75 2.874999999999999 2.8199664825478975e-15
    vertex 4.874999999999999 2.874999999999999 0.0
  endloop
endfacet
facet normal 5.887239935122558e-16 4.576573662826556e-16 -1.0
  outer loop
    vertex 4.75 1.374999999999999 3.524958103184872e-15
    vertex 4.874999999999999 2.874999999999999 0.0
    vertex 4.874999999999999 1.374999999999999 0.0
  endloop
endfacet
facet normal 5.887239935122558e-16 4.576573662826556e-16 -1.0
  outer loop
    vertex 4.874999999999999 1.374999999999999 0.0
    vertex 4.874999999999999 2.874999999999999 0.0
    vertex 5.4896952321184855 1.4559261625634614 0.0
  endloop
endfacet
facet normal 5.887239935122558e-16 4.576573662826556e-16 -1.0
  outer loop
    vertex 5.4896952321184855 1.4559261625634614 0.0
    vertex 4.874999999999999 2.874999999999999 0.0
    vertex 5.101466664464705 2.904814901997064 0.0
  endloop
endfacet
facet normal 5.887239935122558e-16 4.576573662826556e-16 -1.0
  outer loop
    vertex 5.4896952321184855 1.4559261625634614 0.0
    vertex 5.101466664464705 2.904814901997064 0.0
    vertex 5.312499999999999 2.992227771688615 0.0
  endloop
endfacet
facet normal 5.887239935122558e-16 4.576573662826556e-16 -1.0
  outer loop
    vertex 5.4896952321184855 1.4559261625634614 0.0
    vertex 5.312499999999999 2.992227771688615 0.0
    vertex 5.493718433538229 3.13128156646177 0.0
  endloop
endfacet
facet normal 5.887239935122558e-16 4.576573662826556e-16 -1.0
  outer loop
    vertex 5.4896952321184855 1.4559261625634614 0.0
    vertex 5.493718433538229 3.13128156646177 0.0
    vertex 6.062499999999998 1.693189666011956 0.0
  endloop
endfacet
facet normal 5.887239935122558e-16 4.576573662826556e-16 -1.0
  outer loop
    vertex 6.062499999999998 1.693189666011956 0.0
    vertex 5.493718433538229 3.13128156646177 0.0
    vertex 5.632772228311383 3.3124999999999987 0.0
  endloop
endfacet
facet normal 5.887239935122558e-16 4.576573662826556e-16 -1.0
  outer loop
    vertex 6.062499999999998 1.693189666011956 0.0
    vertex 5.632772228311383 3.3124999999999987 0.0
    vertex 5.720185098002934 3.523533335535293 0.0
  endloop
endfacet
facet normal 5.887239935122558e-16 4.576573662826556e-16 -1.0
  outer loop
    vertex 6.062499999999998 1.693189666011956 0.0
    vertex 5.720185098002934 3.523533335535293 0.0
    vertex 5.749999999999999 3.7499999999999987 0.0
  endloop
endfacet
facet normal 5.887239935122558e-16 4.576573662826556e-16 -1.0
  outer loop
    vertex 0.0 0.75 0.0
    vertex -0.025555630283198728 0.5558857161731096 0.0
    vertex 0.0 7.374999999999999 0.0
  endloop
endfacet
facet normal 0.9914448613738105 -0.13052619222005138 -0.0
  outer loop
    vertex 0.0 0.75 0.0
    vertex -0.025555630283198728 0.5558857161731096 7.999999999999999
    vertex -0.025555630283198728 0.5558857161731096 0.0
  endloop
endfacet
facet normal 0.9914448613738105 -0.13052619222005138 -0.0
  outer loop
    vertex -0.025555630283198728 0.5558857161731096 7.999999999999999
    vertex 0.0 0.75 0.0
    vertex 0.0 0.75 7.999999999999999
  endloop
endfacet
facet normal 0.9238795325112868 -0.3826834323650896 -0.0
  outer loop
    vertex -0.025555630283198728 0.5558857161731096 0.0
    vertex -0.10048094716167093 0.3750000000000001 7.999999999999999
    vertex -0.10048094716167093 0.3750000000000001 0.0
  endloop
endfacet
facet normal 0.9238795325112868 -0.3826834323650896 -0.0
  outer loop
    vertex -0.10048094716167093 0.3750000000000001 7.999999999999999
    vertex -0.025555630283198728 0.5558857161731096 0.0
    vertex -0.025555630283198728 0.5558857161731096 7.999999999999999
  endloop
endfacet
facet normal 0.7933533402912355 -0.6087614290087204 -0.0
  outer loop
    vertex -0.10048094716167093 0.3750000000000001 0.0
    vertex -0.2196699141100892 0.2196699141100894 7.999999999999999
    vertex -0.2196699141100892 0.2196699141100894 0.0
  endloop
endfacet
facet normal 0.7933533402912355 -0.6087614290087204 -0.0
  outer loop
    vertex -0.2196699141100892 0.2196699141100894 7.999999999999999
    vertex -0.10048094716167093 0.3750000000000001 0.0
    vertex -0.10048094716167093 0.3750000000000001 7.999999999999999
  endloop
endfacet
facet normal 0.6087614290087207 -0.7933533402912352 -0.0
  outer loop
    vertex -0.2196699141100892 0.2196699141100894 7.999999999999999
    vertex -0.3749999999999998 0.1004809471616711 0.0
    vertex -0.2196699141100892 0.2196699141100894 0.0
  endloop
endfacet
facet normal 0.6087614290087207 -0.7933533402912352 -0.0
  outer loop
    vertex -0.3749999999999998 0.1004809471616711 0.0
    vertex -0.2196699141100892 0.2196699141100894 7.999999999999999
    vertex -0.3749999999999998 0.1004809471616711 7.999999999999999
  endloop
endfacet
facet normal 0.38268343236509006 -0.9238795325112866 -0.0
  outer loop
    vertex -0.3749999999999998 0.1004809471616711 7.999999999999999
    vertex -0.5558857161731092 0.025555630283198814 0.0
    vertex -0.3749999999999998 0.1004809471616711 0.0
  endloop
endfacet
facet normal 0.38268343236509006 -0.9238795325112866 -0.0
  outer loop
    vertex -0.5558857161731092 0.025555630283198814 0.0
    vertex -0.3749999999999998 0.1004809471616711 7.999999999999999
    vertex -0.5558857161731092 0.025555630283198814 7.999999999999999
  endloop
endfacet
facet normal 0.13052619222005177 -0.9914448613738105 0.0
  outer loop
    vertex -0.5558857161731092 0.025555630283198814 7.999999999999999
    vertex -0.7499999999999998 0.0 0.0
    vertex -0.5558857161731092 0.025555630283198814 0.0
  endloop
endfacet
facet normal 0.13052619222005177 -0.9914448613738105 0.0
  outer loop
    vertex -0.7499999999999998 0.0 0.0
    vertex -0.5558857161731092 0.025555630283198814 7.999999999999999
    vertex -0.7499999999999998 0.0 7.999999999999999
  endloop
endfacet
facet normal -0.13052619222005132 -0.9914448613738105 7.208601607068056e-21
  outer loop
    vertex -0.7499999999999998 0.0 0.0
    vertex -0.9441142838268903 0.025555630283198728 7.999999999999999
    vertex -0.9441142838268903 0.025555630283198728 -7.049916206369744e-16
  endloop
endfacet
facet normal -0.13052619222005132 -0.9914448613738105 7.208601607068056e-21
  outer loop
    vertex -0.9441142838268903 0.025555630283198728 7.999999999999999
    vertex -0.7499999999999998 0.0 0.0
    vertex -0.7499999999999998 0.0 7.999999999999999
  endloop
endfacet
facet normal -0.3826834323650898 -0.9238795325112867 -0.0
  outer loop
    vertex -0.9441142838268903 0.025555630283198728 7.999999999999999
    vertex -1.1249999999999998 0.10048094716167093 -7.049916206369744e-16
    vertex -0.9441142838268903 0.025555630283198728 -7.049916206369744e-16
  endloop
endfacet
facet normal -0.3826834323650898 -0.9238795325112867 -0.0
  outer loop
    vertex -1.1249999999999998 0.10048094716167093 -7.049916206369744e-16
    vertex -0.9441142838268903 0.025555630283198728 7.999999999999999
    vertex -1.1249999999999998 0.10048094716167093 7.999999999999999
  endloop
endfacet
facet normal -0.6087614290087204 -0.7933533402912355 -0.0
  outer loop
    vertex -1.1249999999999998 0.10048094716167093 7.999999999999999
    vertex -1.2803300858899105 0.2196699141100892 -7.049916206369744e-16
    vertex -1.1249999999999998 0.10048094716167093 -7.049916206369744e-16
  endloop
endfacet
facet normal -0.6087614290087204 -0.7933533402912355 -0.0
  outer loop
    vertex -1.2803300858899105 0.2196699141100892 -7.049916206369744e-16
    vertex -1.1249999999999998 0.10048094716167093 7.999999999999999
    vertex -1.2803300858899105 0.2196699141100892 7.999999999999999
  endloop
endfacet
facet normal -0.7933533402912348 -0.6087614290087211 -0.0
  outer loop
    vertex -1.3995190528383288 0.3749999999999996 7.999999999999999
    vertex -1.2803300858899105 0.2196699141100892 -7.049916206369744e-16
    vertex -1.2803300858899105 0.2196699141100892 7.999999999999999
  endloop
endfacet
facet normal -0.7933533402912348 -0.6087614290087211 -0.0
  outer loop
    vertex -1.2803300858899105 0.2196699141100892 -7.049916206369744e-16
    vertex -1.3995190528383288 0.3749999999999996 7.999999999999999
    vertex -1.3995190528383288 0.3749999999999996 -7.049916206369744e-16
  endloop
endfacet
facet normal -0.9238795325112866 -0.38268343236509034 -0.0
  outer loop
    vertex -1.474444369716801 0.5558857161731091 7.999999999999999
    vertex -1.3995190528383288 0.3749999999999996 -7.049916206369744e-16
    vertex -1.3995190528383288 0.3749999999999996 7.999999999999999
  endloop
endfacet
facet normal -0.9238795325112866 -0.38268343236509034 -0.0
  outer loop
    vertex -1.3995190528383288 0.3749999999999996 -7.049916206369744e-16
    vertex -1.474444369716801 0.5558857161731091 7.999999999999999
    vertex -1.474444369716801 0.5558857161731091 -7.049916206369744e-16
  endloop
endfacet
facet normal -0.9914448613738105 -0.13052619222005168 0.0
  outer loop
    vertex -1.5 0.7499999999999998 7.999999999999999
    vertex -1.474444369716801 0.5558857161731091 -7.049916206369744e-16
    vertex -1.474444369716801 0.5558857161731091 7.999999999999999
  endloop
endfacet
facet normal -0.9914448613738105 -0.13052619222005168 0.0
  outer loop
    vertex -1.474444369716801 0.5558857161731091 -7.049916206369744e-16
    vertex -1.5 0.7499999999999998 7.999999999999999
    vertex -1.5 0.7499999999999998 -7.049916206369744e-16
  endloop
endfacet
facet normal -0.13052619222005216 -0.9914448613738103 1.0136443522372528e-33
  outer loop
    vertex 4.75 1.374999999999999 7.999999999999999
    vertex 4.55588571617311 1.4005556302831976 3.524958103184872e-15
    vertex 4.75 1.374999999999999 3.524958103184872e-15
  endloop
endfacet
facet normal -0.13052619222005216 -0.9914448613738103 1.0136443522372528e-33
  outer loop
    vertex 4.55588571617311 1.4005556302831976 3.524958103184872e-15
    vertex 4.75 1.374999999999999 7.999999999999999
    vertex 4.55588571617311 1.4005556302831976 7.999999999999999
  endloop
endfacet
facet normal -0.3826834323650885 -0.9238795325112873 -0.0
  outer loop
    vertex 4.55588571617311 1.4005556302831976 7.999999999999999
    vertex 4.375 1.4754809471616699 3.524958103184872e-15
    vertex 4.55588571617311 1.4005556302831976 3.524958103184872e-15
  endloop
endfacet
facet normal -0.3826834323650885 -0.9238795325112873 -0.0
  outer loop
    vertex 4.375 1.4754809471616699 3.524958103184872e-15
    vertex 4.55588571617311 1.4005556302831976 7.999999999999999
    vertex 4.375 1.4754809471616699 7.999999999999999
  endloop
endfacet
facet normal -0.6087614290087202 -0.7933533402912355 -0.0
  outer loop
    vertex 4.375 1.4754809471616699 7.999999999999999
    vertex 4.2196699141100895 1.594669914110088 3.524958103184872e-15
    vertex 4.375 1.4754809471616699 3.524958103184872e-15
  endloop
endfacet
facet normal -0.6087614290087202 -0.7933533402912355 -0.0
  outer loop
    vertex 4.2196699141100895 1.594669914110088 3.524958103184872e-15
    vertex 4.375 1.4754809471616699 7.999999999999999
    vertex 4.2196699141100895 1.594669914110088 7.999999999999999
  endloop
endfacet
facet normal -0.7933533402912355 -0.6087614290087202 -0.0
  outer loop
    vertex 4.100480947161671 1.7499999999999984 7.999999999999999
    vertex 4.2196699141100895 1.594669914110088 3.524958103184872e-15
    vertex 4.2196699141100895 1.594669914110088 7.999999999999999
  endloop
endfacet
facet normal -0.7933533402912355 -0.6087614290087202 -0.0
  outer loop
    vertex 4.2196699141100895 1.594669914110088 3.524958103184872e-15
    vertex 4.100480947161671 1.7499999999999984 7.999999999999999
    vertex 4.100480947161671 1.7499999999999984 3.524958103184872e-15
  endloop
endfacet
facet normal -0.9238795325112862 -0.38268343236509134 -0.0
  outer loop
    vertex 4.025555630283199 1.930885716173108 7.999999999999999
    vertex 4.100480947161671 1.7499999999999984 3.524958103184872e-15
    vertex 4.100480947161671 1.7499999999999984 7.999999999999999
  endloop
endfacet
facet normal -0.9238795325112862 -0.38268343236509134 -0.0
  outer loop
    vertex 4.100480947161671 1.7499999999999984 3.524958103184872e-15
    vertex 4.025555630283199 1.930885716173108 7.999999999999999
    vertex 4.025555630283199 1.930885716173108 3.524958103184872e-15
  endloop
endfacet
facet normal -0.9914448613738105 -0.13052619222005146 5.068221761186238e-34
  outer loop
    vertex 3.9999999999999996 2.124999999999999 7.999999999999999
    vertex 4.025555630283199 1.930885716173108 3.524958103184872e-15
    vertex 4.025555630283199 1.930885716173108 7.999999999999999
  endloop
endfacet
facet normal -0.9914448613738105 -0.13052619222005146 5.068221761186238e-34
  outer loop
    vertex 4.025555630283199 1.930885716173108 3.524958103184872e-15
    vertex 3.9999999999999996 2.124999999999999 7.999999999999999
    vertex 3.9999999999999996 2.124999999999999 3.524958103184872e-15
  endloop
endfacet
facet normal -0.1305261922200512 0.9914448613738105 -0.0
  outer loop
    vertex 4.555885716173108 2.8494443697168 7.999999999999999
    vertex 4.75 2.874999999999999 2.8199664825478975e-15
    vertex 4.555885716173108 2.8494443697168 2.8199664825478975e-15
  endloop
endfacet
facet normal -0.1305261922200512 0.9914448613738105 -0.0
  outer loop
    vertex 4.75 2.874999999999999 2.8199664825478975e-15
    vertex 4.555885716173108 2.8494443697168 7.999999999999999
    vertex 4.75 2.874999999999999 7.999999999999999
  endloop
endfacet
facet normal -0.9914448613738105 0.13052619222005193 7.208601607068586e-21
  outer loop
    vertex 4.025555630283199 2.3191142838268894 7.999999999999999
    vertex 3.9999999999999996 2.124999999999999 3.524958103184872e-15
    vertex 3.9999999999999996 2.124999999999999 7.999999999999999
  endloop
endfacet
facet normal -0.9914448613738105 0.13052619222005193 7.208601607068586e-21
  outer loop
    vertex 3.9999999999999996 2.124999999999999 3.524958103184872e-15
    vertex 4.025555630283199 2.3191142838268894 7.999999999999999
    vertex 4.025555630283199 2.3191142838268894 2.8199664825478975e-15
  endloop
endfacet
facet normal -0.9238795325112872 0.3826834323650889 -0.0
  outer loop
    vertex 4.10048094716167 2.4999999999999982 7.999999999999999
    vertex 4.025555630283199 2.3191142838268894 2.8199664825478975e-15
    vertex 4.025555630283199 2.3191142838268894 7.999999999999999
  endloop
endfacet
facet normal -0.9238795325112872 0.3826834323650889 -0.0
  outer loop
    vertex 4.025555630283199 2.3191142838268894 2.8199664825478975e-15
    vertex 4.10048094716167 2.4999999999999982 7.999999999999999
    vertex 4.10048094716167 2.4999999999999982 2.8199664825478975e-15
  endloop
endfacet
facet normal -0.793353340291235 0.6087614290087207 -0.0
  outer loop
    vertex 4.2196699141100895 2.6553300858899096 7.999999999999999
    vertex 4.10048094716167 2.4999999999999982 2.8199664825478975e-15
    vertex 4.10048094716167 2.4999999999999982 7.999999999999999
  endloop
endfacet
facet normal -0.793353340291235 0.6087614290087207 -0.0
  outer loop
    vertex 4.10048094716167 2.4999999999999982 2.8199664825478975e-15
    vertex 4.2196699141100895 2.6553300858899096 7.999999999999999
    vertex 4.2196699141100895 2.6553300858899096 2.8199664825478975e-15
  endloop
endfacet
facet normal -0.608761429008722 0.7933533402912343 -0.0
  outer loop
    vertex 4.2196699141100895 2.6553300858899096 7.999999999999999
    vertex 4.374999999999999 2.7745190528383277 2.8199664825478975e-15
    vertex 4.2196699141100895 2.6553300858899096 2.8199664825478975e-15
  endloop
endfacet
facet normal -0.608761429008722 0.7933533402912343 -0.0
  outer loop
    vertex 4.374999999999999 2.7745190528383277 2.8199664825478975e-15
    vertex 4.2196699141100895 2.6553300858899096 7.999999999999999
    vertex 4.374999999999999 2.7745190528383277 7.999999999999999
  endloop
endfacet
facet normal -0.38268343236509134 0.9238795325112862 -0.0
  outer loop
    vertex 4.374999999999999 2.7745190528383277 7.999999999999999
    vertex 4.555885716173108 2.8494443697168 2.8199664825478975e-15
    vertex 4.374999999999999 2.7745190528383277 2.8199664825478975e-15
  endloop
endfacet
facet normal -0.38268343236509134 0.9238795325112862 -0.0
  outer loop
    vertex 4.555885716173108 2.8494443697168 2.8199664825478975e-15
    vertex 4.374999999999999 2.7745190528383277 7.999999999999999
    vertex 4.555885716173108 2.8494443697168 7.999999999999999
  endloop
endfacet
facet normal -1.0 0.0 0.0
  outer loop
    vertex 4.125000000000016 7.500000000000002 8.000000000000014
    vertex 4.125000000000016 5.374999999999999 1.6919798895287383e-14
    vertex 4.125000000000016 5.374999999999999 8.000000000000012
  endloop
endfacet
facet normal -1.0 0.0 0.0
  outer loop
    vertex 4.125000000000016 5.374999999999999 1.6919798895287383e-14
    vertex 4.125000000000016 7.500000000000002 8.000000000000014
    vertex 4.125000000000016 7.500000000000002 1.4099832412739488e-14
  endloop
endfacet
facet normal -0.13052619222005785 -0.9914448613738096 1.818124414458616e-16
  outer loop
    vertex 5.101466664464706 4.595185098002934 7.999999999999999
    vertex 4.874999999999999 4.624999999999998 0.0
    vertex 5.101466664464706 4.595185098002934 0.0
  endloop
endfacet
facet normal -0.13052619222005785 -0.9914448613738096 1.818124414458616e-16
  outer loop
    vertex 4.874999999999999 4.624999999999998 0.0
    vertex 5.101466664464706 4.595185098002934 7.999999999999999
    vertex 4.875000000000017 4.624999999999999 8.000000000000014
  endloop
endfacet
facet normal 2.5723916236619634e-16 4.4337709238294275e-16 -1.0
  outer loop
    vertex -1.4829629131445319 9.129409522551258 7.999999999999999
    vertex -1.5 0.7499999999999998 7.999999999999999
    vertex -1.5 8.999999999999998 7.999999999999999
  endloop
endfacet
facet normal 2.5723916236619634e-16 4.4337709238294275e-16 -1.0
  outer loop
    vertex -1.5 0.7499999999999998 7.999999999999999
    vertex -1.4829629131445319 9.129409522551258 7.999999999999999
    vertex -1.474444369716801 0.5558857161731091 7.999999999999999
  endloop
endfacet
facet normal 2.5723916236619634e-16 4.4337709238294275e-16 -1.0
  outer loop
    vertex -1.474444369716801 0.5558857161731091 7.999999999999999
    vertex -1.4829629131445319 9.129409522551258 7.999999999999999
    vertex -1.4330127018922174 9.249999999999996 7.999999999999999
  endloop
endfacet
facet normal 2.5723916236619634e-16 4.4337709238294275e-16 -1.0
  outer loop
    vertex -1.474444369716801 0.5558857161731091 7.999999999999999
    vertex -1.4330127018922174 9.249999999999996 7.999999999999999
    vertex -1.3995190528383288 0.3749999999999996 7.999999999999999
  endloop
endfacet
facet normal 2.5723916236619634e-16 4.4337709238294275e-16 -1.0
  outer loop
    vertex -1.3995190528383288 0.3749999999999996 7.999999999999999
    vertex -1.4330127018922174 9.249999999999996 7.999999999999999
    vertex -1.3535533905932722 9.353553390593271 7.999999999999999
  endloop
endfacet
facet normal 2.5723916236619634e-16 4.4337709238294275e-16 -1.0
  outer loop
    vertex -1.3995190528383288 0.3749999999999996 7.999999999999999
    vertex -1.3535533905932722 9.353553390593271 7.999999999999999
    vertex -1.2803300858899105 0.2196699141100892 7.999999999999999
  endloop
endfacet
facet normal 2.5723916236619634e-16 4.4337709238294275e-16 -1.0
  outer loop
    vertex -1.2803300858899105 0.2196699141100892 7.999999999999999
    vertex -1.3535533905932722 9.353553390593271 7.999999999999999
    vertex -1.249999999999999 9.433012701892215 7.999999999999999
  endloop
endfacet
facet normal 2.5723916236619634e-16 4.4337709238294275e-16 -1.0
  outer loop
    vertex -1.2803300858899105 0.2196699141100892 7.999999999999999
    vertex -1.249999999999999 9.433012701892215 7.999999999999999
    vertex -1.1249999999999998 0.10048094716167093 7.999999999999999
  endloop
endfacet
facet normal 2.5723916236619634e-16 4.4337709238294275e-16 -1.0
  outer loop
    vertex -1.1249999999999998 0.10048094716167093 7.999999999999999
    vertex -1.249999999999999 9.433012701892215 7.999999999999999
    vertex -1.1294095225512601 9.482962913144531 7.999999999999999
  endloop
endfacet
facet normal 2.5723916236619634e-16 4.4337709238294275e-16 -1.0
  outer loop
    vertex -1.1249999999999998 0.10048094716167093 7.999999999999999
    vertex -1.1294095225512601 9.482962913144531 7.999999999999999
    vertex -0.9999999999999999 9.499999999999996 7.999999999999999
  endloop
endfacet
facet normal 2.5723916236619634e-16 4.4337709238294275e-16 -1.0
  outer loop
    vertex -1.1249999999999998 0.10048094716167093 7.999999999999999
    vertex -0.9999999999999999 9.499999999999996 7.999999999999999
    vertex -0.9441142838268903 0.025555630283198728 7.999999999999999
  endloop
endfacet
facet normal 2.5723916236619634e-16 4.4337709238294275e-16 -1.0
  outer loop
    vertex -0.9441142838268903 0.025555630283198728 7.999999999999999
    vertex -0.9999999999999999 9.499999999999996 7.999999999999999
    vertex 0.0 7.374999999999999 7.999999999999999
  endloop
endfacet
facet normal 2.5723916236619634e-16 4.4337709238294275e-16 -1.0
  outer loop
    vertex 0.0 7.374999999999999 7.999999999999999
    vertex -0.9999999999999999 9.499999999999996 7.999999999999999
    vertex 0.017037086855465965 7.504409522551259 7.999999999999999
  endloop
endfacet
facet normal 2.5723916236619634e-16 4.4337709238294275e-16 -1.0
  outer loop
    vertex 0.017037086855465965 7.504409522551259 7.999999999999999
    vertex -0.9999999999999999 9.499999999999996 7.999999999999999
    vertex 0.06698729810778083 7.625 7.999999999999999
  endloop
endfacet
facet normal 2.5723916236619634e-16 4.4337709238294275e-16 -1.0
  outer loop
    vertex 0.06698729810778083 7.625 7.999999999999999
    vertex -0.9999999999999999 9.499999999999996 7.999999999999999
    vertex 0.14644660940672646 7.728553390593274 7.999999999999999
  endloop
endfacet
facet normal 2.5723916236619634e-16 4.4337709238294275e-16 -1.0
  outer loop
    vertex 0.14644660940672646 7.728553390593274 7.999999999999999
    vertex -0.9999999999999999 9.499999999999996 7.999999999999999
    vertex 0.2500000000000004 7.808012701892219 7.999999999999999
  endloop
endfacet
facet normal 2.5723916236619634e-16 4.4337709238294275e-16 -1.0
  outer loop
    vertex 0.2500000000000004 7.808012701892219 7.999999999999999
    vertex -0.9999999999999999 9.499999999999996 7.999999999999999
    vertex 0.3705904774487401 7.857962913144534 7.999999999999999
  endloop
endfacet
facet normal 2.5723916236619634e-16 4.4337709238294275e-16 -1.0
  outer loop
    vertex 0.3705904774487401 7.857962913144534 7.999999999999999
    vertex -0.9999999999999999 9.499999999999996 7.999999999999999
    vertex 5.0 9.5 7.999999999999999
  endloop
endfacet
facet normal 2.5723916236619634e-16 4.4337709238294275e-16 -1.0
  outer loop
    vertex -0.9441142838268903 0.025555630283198728 7.999999999999999
    vertex 0.0 7.374999999999999 7.999999999999999
    vertex -0.7499999999999998 0.0 7.999999999999999
  endloop
endfacet
facet normal 2.5723916236619634e-16 4.4337709238294275e-16 -1.0
  outer loop
    vertex -0.7499999999999998 0.0 7.999999999999999
    vertex 0.0 7.374999999999999 7.999999999999999
    vertex -0.5558857161731092 0.025555630283198814 7.999999999999999
  endloop
endfacet
facet normal 2.5723916236619634e-16 4.4337709238294275e-16 -1.0
  outer loop
    vertex -0.5558857161731092 0.025555630283198814 7.999999999999999
    vertex 0.0 7.374999999999999 7.999999999999999
    vertex -0.3749999999999998 0.1004809471616711 7.999999999999999
  endloop
endfacet
facet normal 2.5723916236619634e-16 4.4337709238294275e-16 -1.0
  outer loop
    vertex -0.3749999999999998 0.1004809471616711 7.999999999999999
    vertex 0.0 7.374999999999999 7.999999999999999
    vertex -0.2196699141100892 0.2196699141100894 7.999999999999999
  endloop
endfacet
facet normal 2.5723916236619634e-16 4.4337709238294275e-16 -1.0
  outer loop
    vertex -0.2196699141100892 0.2196699141100894 7.999999999999999
    vertex 0.0 7.374999999999999 7.999999999999999
    vertex -0.10048094716167093 0.3750000000000001 7.999999999999999
  endloop
endfacet
facet normal 2.5723916236619634e-16 4.4337709238294275e-16 -1.0
  outer loop
    vertex -0.10048094716167093 0.3750000000000001 7.999999999999999
    vertex 0.0 7.374999999999999 7.999999999999999
    vertex -0.025555630283198728 0.5558857161731096 7.999999999999999
  endloop
endfacet
facet normal 2.5723916236619634e-16 4.4337709238294275e-16 -1.0
  outer loop
    vertex 0.3705904774487401 7.857962913144534 7.999999999999999
    vertex 5.0 9.5 7.999999999999999
    vertex 0.5000000000000006 7.875 7.999999999999999
  endloop
endfacet
facet normal 2.5723916236619634e-16 4.4337709238294275e-16 -1.0
  outer loop
    vertex 0.5000000000000006 7.875 7.999999999999999
    vertex 5.0 9.5 7.999999999999999
    vertex 3.6250000000000164 8.000000000000004 8.000000000000014
  endloop
endfacet
facet normal 2.5723916236619634e-16 4.4337709238294275e-16 -1.0
  outer loop
    vertex 3.6250000000000164 8.000000000000004 8.000000000000014
    vertex 5.0 9.5 7.999999999999999
    vertex 3.7544095225512772 7.982962913144537 8.000000000000014
  endloop
endfacet
facet normal 2.5723916236619634e-16 4.4337709238294275e-16 -1.0
  outer loop
    vertex 3.7544095225512772 7.982962913144537 8.000000000000014
    vertex 5.0 9.5 7.999999999999999
    vertex 3.875000000000017 7.933012701892221 8.000000000000014
  endloop
endfacet
facet normal 2.5723916236619634e-16 4.4337709238294275e-16 -1.0
  outer loop
    vertex 3.875000000000017 7.933012701892221 8.000000000000014
    vertex 5.0 9.5 7.999999999999999
    vertex 3.9785533905932904 7.853553390593277 8.000000000000014
  endloop
endfacet
facet normal 2.5723916236619634e-16 4.4337709238294275e-16 -1.0
  outer loop
    vertex 3.9785533905932904 7.853553390593277 8.000000000000014
    vertex 5.0 9.5 7.999999999999999
    vertex 4.0580127018922365 7.750000000000001 8.000000000000014
  endloop
endfacet
facet normal 2.5723916236619634e-16 4.4337709238294275e-16 -1.0
  outer loop
    vertex 4.0580127018922365 7.750000000000001 8.000000000000014
    vertex 5.0 9.5 7.999999999999999
    vertex 4.107962913144552 7.6294095225512635 8.000000000000014
  endloop
endfacet
facet normal 2.5723916236619634e-16 4.4337709238294275e-16 -1.0
  outer loop
    vertex 4.107962913144552 7.6294095225512635 8.000000000000014
    vertex 5.0 9.5 7.999999999999999
    vertex 4.125000000000016 7.500000000000002 8.000000000000014
  endloop
endfacet
facet normal 2.5723916236619634e-16 4.4337709238294275e-16 -1.0
  outer loop
    vertex 4.125000000000016 7.500000000000002 8.000000000000014
    vertex 5.0 9.5 7.999999999999999
    vertex 4.125000000000016 5.374999999999999 8.000000000000012
  endloop
endfacet
facet normal 2.5723916236619634e-16 4.4337709238294275e-16 -1.0
  outer loop
    vertex 4.125000000000016 5.374999999999999 8.000000000000012
    vertex 5.0 9.5 7.999999999999999
    vertex 4.160478961815746 5.173939216290973 8.000000000000009
  endloop
endfacet
facet normal 2.5723916236619634e-16 4.4337709238294275e-16 -1.0
  outer loop
    vertex 4.160478961815746 5.173939216290973 8.000000000000009
    vertex 5.0 9.5 7.999999999999999
    vertex 4.246787367370618 4.988912043670882 8.000000000000007
  endloop
endfacet
facet normal 2.5723916236619634e-16 4.4337709238294275e-16 -1.0
  outer loop
    vertex 4.246787367370618 4.988912043670882 8.000000000000007
    vertex 5.0 9.5 7.999999999999999
    vertex 4.378043441457448 4.832527778181924 8.000000000000004
  endloop
endfacet
facet normal 2.5723916236619634e-16 4.4337709238294275e-16 -1.0
  outer loop
    vertex 4.378043441457448 4.832527778181924 8.000000000000004
    vertex 5.0 9.5 7.999999999999999
    vertex 4.545302299538144 4.715443749079951 8.000000000000002
  endloop
endfacet
facet normal 2.5723916236619634e-16 4.4337709238294275e-16 -1.0
  outer loop
    vertex 4.545302299538144 4.715443749079951 8.000000000000002
    vertex 5.0 9.5 7.999999999999999
    vertex 4.737165526842832 4.64563903945776 7.999999999999998
  endloop
endfacet
facet normal 2.5723916236619634e-16 4.4337709238294275e-16 -1.0
  outer loop
    vertex 4.737165526842832 4.64563903945776 7.999999999999998
    vertex 5.0 9.5 7.999999999999999
    vertex 4.875000000000017 4.624999999999999 8.000000000000014
  endloop
endfacet
facet normal 2.5723916236619634e-16 4.4337709238294275e-16 -1.0
  outer loop
    vertex 4.875000000000017 4.624999999999999 8.000000000000014
    vertex 5.0 9.5 7.999999999999999
    vertex 5.101466664464706 4.595185098002934 7.999999999999999
  endloop
endfacet
facet normal 2.5723916236619634e-16 4.4337709238294275e-16 -1.0
  outer loop
    vertex 5.101466664464706 4.595185098002934 7.999999999999999
    vertex 5.0 9.5 7.999999999999999
    vertex 5.12940952255126 9.482962913144533 7.999999999999999
  endloop
endfacet
facet normal 2.5723916236619634e-16 4.4337709238294275e-16 -1.0
  outer loop
    vertex 5.101466664464706 4.595185098002934 7.999999999999999
    vertex 5.12940952255126 9.482962913144533 7.999999999999999
    vertex 5.3125 4.507772228311382 7.999999999999999
  endloop
endfacet
facet normal 2.5723916236619634e-16 4.4337709238294275e-16 -1.0
  outer loop
    vertex 5.3125 4.507772228311382 7.999999999999999
    vertex 5.12940952255126 9.482962913144533 7.999999999999999
    vertex 5.249999999999999 9.433012701892219 7.999999999999999
  endloop
endfacet
facet normal 2.5723916236619634e-16 4.4337709238294275e-16 -1.0
  outer loop
    vertex 5.3125 4.507772228311382 7.999999999999999
    vertex 5.249999999999999 9.433012701892219 7.999999999999999
    vertex 5.353553390593272 9.353553390593273 7.999999999999999
  endloop
endfacet
facet normal 2.5723916236619634e-16 4.4337709238294275e-16 -1.0
  outer loop
    vertex 5.3125 4.507772228311382 7.999999999999999
    vertex 5.353553390593272 9.353553390593273 7.999999999999999
    vertex 5.493718433538229 4.368718433538227 7.999999999999999
  endloop
endfacet
facet normal 2.5723916236619634e-16 4.4337709238294275e-16 -1.0
  outer loop
    vertex 5.493718433538229 4.368718433538227 7.999999999999999
    vertex 5.353553390593272 9.353553390593273 7.999999999999999
    vertex 5.433012701892218 9.250000000000002 7.999999999999999
  endloop
endfacet
facet normal 2.5723916236619634e-16 4.4337709238294275e-16 -1.0
  outer loop
    vertex 5.493718433538229 4.368718433538227 7.999999999999999
    vertex 5.433012701892218 9.250000000000002 7.999999999999999
    vertex 5.482962913144532 9.129409522551262 7.999999999999999
  endloop
endfacet
facet normal 2.5723916236619634e-16 4.4337709238294275e-16 -1.0
  outer loop
    vertex 5.493718433538229 4.368718433538227 7.999999999999999
    vertex 5.482962913144532 9.129409522551262 7.999999999999999
    vertex 7.169073837436536 4.3646952321184855 7.999999999999999
  endloop
endfacet
facet normal 2.5723916236619634e-16 4.4337709238294275e-16 -1.0
  outer loop
    vertex 5.493718433538229 4.368718433538227 7.999999999999999
    vertex 7.169073837436536 4.3646952321184855 7.999999999999999
    vertex 5.632772228311383 4.187499999999999 7.999999999999999
  endloop
endfacet
facet normal 2.5723916236619634e-16 4.4337709238294275e-16 -1.0
  outer loop
    vertex 5.632772228311383 4.187499999999999 7.999999999999999
    vertex 7.169073837436536 4.3646952321184855 7.999999999999999
    vertex 5.720185098002934 3.976466664464704 7.999999999999999
  endloop
endfacet
facet normal 2.5723916236619634e-16 4.4337709238294275e-16 -1.0
  outer loop
    vertex 5.720185098002934 3.976466664464704 7.999999999999999
    vertex 7.169073837436536 4.3646952321184855 7.999999999999999
    vertex 5.749999999999999 3.7499999999999987 7.999999999999999
  endloop
endfacet
facet normal 2.5723916236619634e-16 4.4337709238294275e-16 -1.0
  outer loop
    vertex 5.749999999999999 3.7499999999999987 7.999999999999999
    vertex 7.169073837436536 4.3646952321184855 7.999999999999999
    vertex 6.062499999999998 1.693189666011956 7.999999999999999
  endloop
endfacet
facet normal 2.5723916236619634e-16 4.4337709238294275e-16 -1.0
  outer loop
    vertex 6.062499999999998 1.693189666011956 7.999999999999999
    vertex 7.169073837436536 4.3646952321184855 7.999999999999999
    vertex 6.55437860531805 2.070621394681948 7.999999999999999
  endloop
endfacet
facet normal 2.5723916236619634e-16 4.4337709238294275e-16 -1.0
  outer loop
    vertex 6.55437860531805 2.070621394681948 7.999999999999999
    vertex 7.169073837436536 4.3646952321184855 7.999999999999999
    vertex 6.93181033398804 2.562499999999998 7.999999999999999
  endloop
endfacet
facet normal 2.5723916236619634e-16 4.4337709238294275e-16 -1.0
  outer loop
    vertex 6.93181033398804 2.562499999999998 7.999999999999999
    vertex 7.169073837436536 4.3646952321184855 7.999999999999999
    vertex 7.169073837436536 3.13530476788151 7.999999999999999
  endloop
endfacet
facet normal 2.5723916236619634e-16 4.4337709238294275e-16 -1.0
  outer loop
    vertex 7.169073837436536 3.13530476788151 7.999999999999999
    vertex 7.169073837436536 4.3646952321184855 7.999999999999999
    vertex 7.249999999999999 3.7499999999999987 7.999999999999999
  endloop
endfacet
facet normal 2.5723916236619634e-16 4.4337709238294275e-16 -1.0
  outer loop
    vertex 4.025555630283199 2.3191142838268894 7.999999999999999
    vertex 4.025555630283199 1.930885716173108 7.999999999999999
    vertex 3.9999999999999996 2.124999999999999 7.999999999999999
  endloop
endfacet
facet normal 2.5723916236619634e-16 4.4337709238294275e-16 -1.0
  outer loop
    vertex 4.025555630283199 1.930885716173108 7.999999999999999
    vertex 4.025555630283199 2.3191142838268894 7.999999999999999
    vertex 4.10048094716167 2.4999999999999982 7.999999999999999
  endloop
endfacet
facet normal 2.5723916236619634e-16 4.4337709238294275e-16 -1.0
  outer loop
    vertex 4.025555630283199 1.930885716173108 7.999999999999999
    vertex 4.10048094716167 2.4999999999999982 7.999999999999999
    vertex 4.100480947161671 1.7499999999999984 7.999999999999999
  endloop
endfacet
facet normal 2.5723916236619634e-16 4.4337709238294275e-16 -1.0
  outer loop
    vertex 4.100480947161671 1.7499999999999984 7.999999999999999
    vertex 4.10048094716167 2.4999999999999982 7.999999999999999
    vertex 4.2196699141100895 2.6553300858899096 7.999999999999999
  endloop
endfacet
facet normal 2.5723916236619634e-16 4.4337709238294275e-16 -1.0
  outer loop
    vertex 4.100480947161671 1.7499999999999984 7.999999999999999
    vertex 4.2196699141100895 2.6553300858899096 7.999999999999999
    vertex 4.2196699141100895 1.594669914110088 7.999999999999999
  endloop
endfacet
facet normal 2.5723916236619634e-16 4.4337709238294275e-16 -1.0
  outer loop
    vertex 4.2196699141100895 1.594669914110088 7.999999999999999
    vertex 4.2196699141100895 2.6553300858899096 7.999999999999999
    vertex 4.374999999999999 2.7745190528383277 7.999999999999999
  endloop
endfacet
facet normal 2.5723916236619634e-16 4.4337709238294275e-16 -1.0
  outer loop
    vertex 4.2196699141100895 1.594669914110088 7.999999999999999
    vertex 4.374999999999999 2.7745190528383277 7.999999999999999
    vertex 4.375 1.4754809471616699 7.999999999999999
  endloop
endfacet
facet normal 2.5723916236619634e-16 4.4337709238294275e-16 -1.0
  outer loop
    vertex 4.375 1.4754809471616699 7.999999999999999
    vertex 4.374999999999999 2.7745190528383277 7.999999999999999
    vertex 4.555885716173108 2.8494443697168 7.999999999999999
  endloop
endfacet
facet normal 2.5723916236619634e-16 4.4337709238294275e-16 -1.0
  outer loop
    vertex 4.375 1.4754809471616699 7.999999999999999
    vertex 4.555885716173108 2.8494443697168 7.999999999999999
    vertex 4.55588571617311 1.4005556302831976 7.999999999999999
  endloop
endfacet
facet normal 2.5723916236619634e-16 4.4337709238294275e-16 -1.0
  outer loop
    vertex 4.55588571617311 1.4005556302831976 7.999999999999999
    vertex 4.555885716173108 2.8494443697168 7.999999999999999
    vertex 4.75 2.874999999999999 7.999999999999999
  endloop
endfacet
facet normal 2.5723916236619634e-16 4.4337709238294275e-16 -1.0
  outer loop
    vertex 4.55588571617311 1.4005556302831976 7.999999999999999
    vertex 4.75 2.874999999999999 7.999999999999999
    vertex 4.75 1.374999999999999 7.999999999999999
  endloop
endfacet
facet normal 2.5723916236619634e-16 4.4337709238294275e-16 -1.0
  outer loop
    vertex 4.75 1.374999999999999 7.999999999999999
    vertex 4.75 2.874999999999999 7.999999999999999
    vertex 4.874999999999999 2.874999999999999 7.999999999999999
  endloop
endfacet
facet normal 2.5723916236619634e-16 4.4337709238294275e-16 -1.0
  outer loop
    vertex 4.75 1.374999999999999 7.999999999999999
    vertex 4.874999999999999 2.874999999999999 7.999999999999999
    vertex 4.874999999999999 1.374999999999999 7.999999999999999
  endloop
endfacet
facet normal 2.5723916236619634e-16 4.4337709238294275e-16 -1.0
  outer loop
    vertex 4.874999999999999 1.374999999999999 7.999999999999999
    vertex 4.874999999999999 2.874999999999999 7.999999999999999
    vertex 4.944114283826891 1.4005556302831976 7.999999999999999
  endloop
endfacet
facet normal 2.5723916236619634e-16 4.4337709238294275e-16 -1.0
  outer loop
    vertex 4.944114283826891 1.4005556302831976 7.999999999999999
    vertex 4.874999999999999 2.874999999999999 7.999999999999999
    vertex 5.101466664464705 2.904814901997064 7.999999999999999
  endloop
endfacet
facet normal 2.5723916236619634e-16 4.4337709238294275e-16 -1.0
  outer loop
    vertex 4.944114283826891 1.4005556302831976 7.999999999999999
    vertex 5.101466664464705 2.904814901997064 7.999999999999999
    vertex 5.4896952321184855 1.4559261625634614 7.999999999999999
  endloop
endfacet
facet normal 2.5723916236619634e-16 4.4337709238294275e-16 -1.0
  outer loop
    vertex 5.4896952321184855 1.4559261625634614 7.999999999999999
    vertex 5.101466664464705 2.904814901997064 7.999999999999999
    vertex 5.312499999999999 2.992227771688615 7.999999999999999
  endloop
endfacet
facet normal 2.5723916236619634e-16 4.4337709238294275e-16 -1.0
  outer loop
    vertex 5.4896952321184855 1.4559261625634614 7.999999999999999
    vertex 5.312499999999999 2.992227771688615 7.999999999999999
    vertex 5.493718433538229 3.13128156646177 7.999999999999999
  endloop
endfacet
facet normal 2.5723916236619634e-16 4.4337709238294275e-16 -1.0
  outer loop
    vertex 5.4896952321184855 1.4559261625634614 7.999999999999999
    vertex 5.493718433538229 3.13128156646177 7.999999999999999
    vertex 6.062499999999998 1.693189666011956 7.999999999999999
  endloop
endfacet
facet normal 2.5723916236619634e-16 4.4337709238294275e-16 -1.0
  outer loop
    vertex 6.062499999999998 1.693189666011956 7.999999999999999
    vertex 5.493718433538229 3.13128156646177 7.999999999999999
    vertex 5.632772228311383 3.3124999999999987 7.999999999999999
  endloop
endfacet
facet normal 2.5723916236619634e-16 4.4337709238294275e-16 -1.0
  outer loop
    vertex 6.062499999999998 1.693189666011956 7.999999999999999
    vertex 5.632772228311383 3.3124999999999987 7.999999999999999
    vertex 5.720185098002934 3.523533335535293 7.999999999999999
  endloop
endfacet
facet normal 2.5723916236619634e-16 4.4337709238294275e-16 -1.0
  outer loop
    vertex 6.062499999999998 1.693189666011956 7.999999999999999
    vertex 5.720185098002934 3.523533335535293 7.999999999999999
    vertex 5.749999999999999 3.7499999999999987 7.999999999999999
  endloop
endfacet
facet normal 2.5723916236619634e-16 4.4337709238294275e-16 -1.0
  outer loop
    vertex 0.0 0.75 7.999999999999999
    vertex -0.025555630283198728 0.5558857161731096 7.999999999999999
    vertex 0.0 7.374999999999999 7.999999999999999
  endloop
endfacet
facet normal -0.9847855310959077 -0.17377415729662193 0.0
  outer loop
    vertex 4.125000000000016 5.374999999999999 1.6919798895287383e-14
    vertex 4.160478961815746 5.173939216290973 8.000000000000009
    vertex 4.125000000000016 5.374999999999999 8.000000000000012
  endloop
endfacet
facet normal -0.9914442434571081 -0.13052611086977406 0.0011164662887589148
  outer loop
    vertex 4.125000000000016 5.374999999999999 1.6919798895287383e-14
    vertex 4.150555630283216 5.180885716173108 1.6919798895287383e-14
    vertex 4.160478961815746 5.173939216290973 8.000000000000009
  endloop
endfacet
facet normal -0.3418998328279299 -0.9397360965519426 0.000757066411646622
  outer loop
    vertex 4.545302299538144 4.715443749079951 8.000000000000002
    vertex 4.500000000000017 4.72548094716167 1.6919798895287383e-14
    vertex 4.737165526842832 4.64563903945776 7.999999999999998
  endloop
endfacet
facet normal -0.38268256884738006 -0.9238774477951252 0.002124371892208482
  outer loop
    vertex 4.737165526842832 4.64563903945776 7.999999999999998
    vertex 4.500000000000017 4.72548094716167 1.6919798895287383e-14
    vertex 4.680885716173126 4.650555630283198 1.6919798895287383e-14
  endloop
endfacet
facet normal -0.7659617029897878 -0.6428851759539808 0.0011489523940292317
  outer loop
    vertex 4.225480947161688 4.999999999999998 1.6919798895287383e-14
    vertex 4.378043441457448 4.832527778181924 8.000000000000004
    vertex 4.246787367370618 4.988912043670882 8.000000000000007
  endloop
endfacet
facet normal -0.7933510826526269 -0.6087596966616894 0.002385660133562117
  outer loop
    vertex 4.225480947161688 4.999999999999998 1.6919798895287383e-14
    vertex 4.3446699141101055 4.844669914110089 1.6919798895287383e-14
    vertex 4.378043441457448 4.832527778181924 8.000000000000004
  endloop
endfacet
facet normal -0.14808689203246245 -0.9889742585430592 0.0004339900600130416
  outer loop
    vertex 4.875000000000017 4.624999999999999 8.000000000000014
    vertex 4.737165526842832 4.64563903945776 7.999999999999998
    vertex 4.680885716173126 4.650555630283198 1.6919798895287383e-14
  endloop
endfacet
facet normal -0.13052619222006687 -0.9914448613738084 3.634995160833601e-16
  outer loop
    vertex 4.875000000000017 4.624999999999999 8.000000000000014
    vertex 4.680885716173126 4.650555630283198 1.6919798895287383e-14
    vertex 4.874999999999999 4.624999999999998 0.0
  endloop
endfacet
facet normal -0.573471263515217 -0.8192248713452596 0.001148952394029125
  outer loop
    vertex 4.378043441457448 4.832527778181924 8.000000000000004
    vertex 4.3446699141101055 4.844669914110089 1.6919798895287383e-14
    vertex 4.545302299538144 4.715443749079951 8.000000000000002
  endloop
endfacet
facet normal -0.6087595991278975 -0.7933509555441172 0.0024518986271605766
  outer loop
    vertex 4.545302299538144 4.715443749079951 8.000000000000002
    vertex 4.3446699141101055 4.844669914110089 1.6919798895287383e-14
    vertex 4.500000000000017 4.72548094716167 1.6919798895287383e-14
  endloop
endfacet
facet normal -0.906253456676831 -0.4227340761184784 0.0007570664116468348
  outer loop
    vertex 4.150555630283216 5.180885716173108 1.6919798895287383e-14
    vertex 4.246787367370618 4.988912043670882 8.000000000000007
    vertex 4.160478961815746 5.173939216290973 8.000000000000009
  endloop
endfacet
facet normal -0.9238778115272007 -0.38268271951014243 0.00193016994903364
  outer loop
    vertex 4.150555630283216 5.180885716173108 1.6919798895287383e-14
    vertex 4.225480947161688 4.999999999999998 1.6919798895287383e-14
    vertex 4.246787367370618 4.988912043670882 8.000000000000007
  endloop
endfacet
endsolid hatchbox_spool_clip_1.75b
